<svg xmlns="http://www.w3.org/2000/svg" width="270" height="79" viewBox="0 0 270 79" fill="none">
<path d="M77.6497 40.1836H40.4258C40.4258 60.8079 57.0926 77.5293 77.6497 77.5293V40.1836Z" fill="currentColor"/><path d="M40.4258 37.3457H77.6497C77.6497 16.7214 60.9828 0 40.4258 0V37.3457Z" fill="currentColor"/><path d="M0.744141 0V37.3457C21.3012 37.3457 37.968 20.6243 37.968 0H0.744141Z" fill="currentColor"/><path d="M19.7199 38.707C8.8267 38.707 0 47.5664 0 58.4915C0 69.4166 8.8267 78.276 19.7199 78.276C30.6132 78.276 39.4399 69.4204 39.4399 58.4915C39.4399 47.5664 30.6132 38.707 19.7199 38.707Z" fill="currentColor"/><path d="M143.244 44.4125V35.7631C143.244 26.7313 137.433 23.7207 129.519 23.7207C122.175 23.7207 116.813 27.3087 115.027 31.3428L122.624 36.2767C124.22 33.7798 126.137 32.6888 128.498 32.6888C130.479 32.6888 131.69 33.4573 131.69 34.867C131.69 36.0218 130.86 36.7229 129.455 36.9816L124.668 37.8139C118.666 38.8374 114.709 40.8882 114.709 45.6272C114.709 50.3662 118.222 54.1454 124.16 54.1454C128.566 54.1454 132.078 51.8396 132.908 48.8928C133.356 52.1583 136.675 53.8904 140.442 53.8904C142.74 53.8904 143.954 53.6992 145.487 53.2493V46.1409C145.169 46.2046 144.848 46.2683 144.403 46.2683C143.446 46.2683 143.252 45.7547 143.252 44.4125H143.244ZM131.88 41.9155C131.88 44.285 130.539 46.4633 128.177 46.4633C126.518 46.4633 125.625 45.5672 125.625 44.3487C125.625 42.7478 127.284 42.2979 128.816 41.8518L129.9 41.5331C130.475 41.3419 131.114 41.2144 131.88 40.637V41.9193V41.9155Z" fill="currentColor"/><path d="M166.856 23.9121C163.47 23.9121 161.108 25.4493 159.513 27.6276V24.4257H147.637V53.6357H159.21V38.7739C159.21 35.2084 162.136 33.2026 164.707 33.2026C166.762 33.2026 167.753 33.8437 169.221 34.7923L173.87 26.0979C171.176 24.287 169.218 23.9159 166.863 23.9159L166.856 23.9121Z" fill="currentColor"/><path d="M187.993 23.912C177.713 23.912 171.711 30.3193 171.711 38.9649C171.711 47.6106 177.712 54.1454 188.12 54.1454C193.931 54.1454 198.591 52.2896 201.016 47.8055L192.907 43.5764C192.077 45.1136 190.609 46.0734 187.989 46.0734C184.988 46.0734 182.881 44.4725 182.436 42.2305H203.251C203.314 41.2707 203.378 40.3709 203.378 39.5386C203.378 30.2518 197.694 23.9082 187.989 23.9082L187.993 23.912ZM182.567 36.2093C182.694 33.7761 184.611 31.4703 187.675 31.4703C190.74 31.4703 192.657 33.135 192.72 36.2093H182.567Z" fill="currentColor"/><path d="M217.664 24.4258H206.109V53.6357H217.664V24.4258Z" fill="currentColor"/><path d="M260.112 23.9764C256.024 23.9764 251.939 25.7048 250.28 28.9741C248.938 25.6448 245.874 23.9764 241.595 23.9764C237.316 23.9764 234.573 25.7685 232.974 28.1418L233.037 24.4263H220.844V53.6362H232.335V37.5597C232.335 34.4854 233.931 32.9482 236.487 32.9482C238.594 32.9482 239.615 34.2304 239.615 37.6872V53.7H251.169V37.556C251.169 34.5454 252.892 32.9445 255.317 32.9445C257.171 32.9445 258.445 34.2267 258.445 37.6834V53.6962H270V38.6432C270 28.3292 266.745 23.9727 260.104 23.9727L260.112 23.9764Z" fill="currentColor"/><path d="M217.668 21.8464V10.2539H206.113C206.113 16.6575 211.289 21.8464 217.668 21.8464Z" fill="currentColor"/>
</svg>
