<svg width="295" height="79" viewBox="0 0 295 79" fill="none" xmlns="http://www.w3.org/2000/svg">
<path d="M9.78409 32.7295H24.1573L16.9707 14.311L9.78409 32.7295ZM0.568604 41.0618L16.9707 0.879395L33.3728 41.0618H27.3944L26.1862 37.8831H7.80936L6.55118 41.0618H0.568604Z" fill="currentColor"/>
<path d="M93.3276 0.990234H99.4185L83.0706 41.3352L66.7227 0.990234H72.8135L83.0706 26.2078L93.3276 0.990234Z" fill="currentColor"/>
<path d="M141.981 32.7295H156.355L149.168 14.311L141.981 32.7295ZM132.766 41.0618L149.168 0.879395L165.57 41.0618H159.592L158.383 37.8831H140.007L138.748 41.0618H132.766Z" fill="currentColor"/>
<path d="M207.206 41.2263H201.665V0.277344L227.666 31.3608V0.989746H233.207V41.2263H227.828L207.206 15.8462V41.2263Z" fill="currentColor"/>
<path d="M269.298 0.934814H294.97V6.57983H285.042V41.063H279.226V6.57983H269.298V0.934814Z" fill="currentColor"/>
<path d="M47.2347 77.1909C47.8013 77.1909 48.3221 77.0576 48.7928 76.7869C49.2678 76.5161 49.6552 76.1577 49.9552 75.7036L51.1092 76.5662C50.6676 77.1702 50.1135 77.645 49.4427 77.9993C48.7762 78.3533 48.0388 78.5283 47.2347 78.5283C46.5723 78.5283 45.9474 78.4033 45.3641 78.145C44.7767 77.8909 44.2726 77.541 43.8351 77.1035C43.4019 76.666 43.0602 76.1536 42.8103 75.5662C42.5561 74.9788 42.4312 74.3496 42.4312 73.6748C42.4312 73.0039 42.5561 72.375 42.8103 71.7876C43.0602 71.1958 43.4019 70.6833 43.8351 70.2461C44.2726 69.8086 44.7767 69.4629 45.3641 69.2046C45.9474 68.9504 46.5723 68.8213 47.2347 68.8213C48.0388 68.8213 48.7762 69.0002 49.4427 69.3503C50.1135 69.7043 50.6676 70.1836 51.1092 70.7834L49.9552 71.6458C49.6552 71.1958 49.2678 70.8335 48.7928 70.5669C48.3221 70.2959 47.8013 70.1626 47.2347 70.1626C46.7764 70.1626 46.3431 70.2544 45.939 70.4419C45.5391 70.6252 45.185 70.875 44.885 71.1958C44.5851 71.5125 44.3476 71.8833 44.1684 72.3083C43.9934 72.7332 43.906 73.1914 43.906 73.6748C43.906 74.1621 43.9934 74.6162 44.1684 75.0413C44.3476 75.4663 44.5851 75.8369 44.885 76.1577C45.185 76.4744 45.5391 76.7244 45.939 76.9119C46.3431 77.0994 46.7764 77.1909 47.2347 77.1909Z" fill="currentColor"/>
<path d="M60.7455 76.5007H64.2242L62.4828 72.043L60.7455 76.5007ZM58.5166 78.5171L62.4828 68.7932L66.4531 78.5171H65.0074L64.7158 77.7463H60.2706L59.9622 78.5171H58.5166Z" fill="currentColor"/>
<path d="M77.1893 74.4189C77.481 74.4189 77.7476 74.3564 77.9934 74.2314C78.235 74.1106 78.4475 73.9438 78.6308 73.7397C78.81 73.5398 78.9516 73.3064 79.0558 73.0481C79.1558 72.7856 79.2057 72.5149 79.2057 72.2317C79.2057 71.9482 79.1558 71.6775 79.0558 71.415C78.9516 71.1526 78.81 70.9233 78.6308 70.7192C78.4475 70.5151 78.235 70.3484 77.9934 70.2278C77.7476 70.1028 77.481 70.0403 77.1893 70.0403H75.2937V74.4189H77.1893ZM80.6681 71.8857C80.6764 71.9399 80.6805 71.99 80.6847 72.0442C80.6931 72.0984 80.6931 72.1565 80.6931 72.2148V72.2317V72.2441C80.6931 72.3066 80.6931 72.3608 80.6847 72.4148C80.6805 72.469 80.6764 72.5232 80.6681 72.5732V72.5898L80.6264 72.9065C80.6181 72.9148 80.6139 72.9314 80.6139 72.9607C80.6056 73.0024 80.5972 73.0439 80.5889 73.0774C80.5806 73.1147 80.5681 73.1523 80.5472 73.1982C80.4222 73.6064 80.239 73.969 79.9973 74.2854C79.7557 74.6021 79.4599 74.873 79.1141 75.0938C78.8224 75.2729 78.4975 75.4104 78.1434 75.5144C77.7892 75.6145 77.4143 75.6646 77.0185 75.6646H75.2771V78.5432H73.8606V68.7944H77.0185C77.8142 68.7944 78.5142 68.9861 79.1141 69.3652C79.4599 69.5862 79.7557 69.8569 79.9973 70.1736C80.239 70.4944 80.4222 70.8525 80.5472 71.2483C80.5847 71.3442 80.6056 71.4275 80.6139 71.5024C80.6139 71.5276 80.6181 71.5442 80.6264 71.5525C80.6347 71.6067 80.6431 71.6609 80.6472 71.7151C80.6514 71.7649 80.6597 71.8149 80.6681 71.8567V71.8857Z" fill="currentColor"/>
<path d="M88.1001 68.8083H89.5208V78.532H88.1001V68.8083Z" fill="currentColor"/>
<path d="M96.9255 68.8079H103.137V70.1743H100.733V78.519H99.3294V70.1743H96.9255V68.8079Z" fill="currentColor"/>
<path d="M112.772 76.5007H116.251L114.51 72.043L112.772 76.5007ZM110.543 78.5171L114.51 68.7932L118.48 78.5171H117.03L116.743 77.7463H112.293L111.989 78.5171H110.543Z" fill="currentColor"/>
<path d="M127.307 77.1506H131.273V78.542H125.886V68.8101H127.307V77.1506Z" fill="currentColor"/>
<path d="M153.957 74.4189C154.248 74.4189 154.515 74.3564 154.761 74.2314C155.002 74.1106 155.215 73.9438 155.398 73.7397C155.577 73.5398 155.719 73.3064 155.823 73.0481C155.923 72.7856 155.973 72.5149 155.973 72.2317C155.973 71.9482 155.923 71.6775 155.823 71.415C155.719 71.1526 155.577 70.9233 155.398 70.7192C155.215 70.5151 155.002 70.3484 154.761 70.2278C154.515 70.1028 154.248 70.0403 153.957 70.0403H152.061V74.4189H153.957ZM157.435 71.8857C157.444 71.9399 157.448 71.99 157.452 72.0442C157.46 72.0984 157.46 72.1565 157.46 72.2148V72.2317V72.2441C157.46 72.3066 157.46 72.3608 157.452 72.4148C157.448 72.469 157.444 72.5232 157.435 72.5732V72.5898L157.394 72.9065C157.385 72.9148 157.381 72.9314 157.381 72.9607C157.373 73.0024 157.365 73.0439 157.356 73.0774C157.348 73.1147 157.335 73.1523 157.315 73.1982C157.19 73.6064 157.006 73.969 156.765 74.2854C156.523 74.6021 156.227 74.873 155.881 75.0938C155.59 75.2729 155.265 75.4104 154.911 75.5144C154.557 75.6145 154.182 75.6646 153.786 75.6646H152.049V78.5432H150.628V68.7944H153.786C154.582 68.7944 155.282 68.9861 155.881 69.3652C156.227 69.5862 156.523 69.8569 156.765 70.1736C157.006 70.4944 157.19 70.8525 157.315 71.2483C157.352 71.3442 157.373 71.4275 157.381 71.5024C157.381 71.5276 157.385 71.5442 157.394 71.5525C157.402 71.6067 157.41 71.6609 157.415 71.7151C157.419 71.7649 157.427 71.8149 157.435 71.8567V71.8857Z" fill="currentColor"/>
<path d="M167.097 76.5007H170.575L168.838 72.043L167.097 76.5007ZM164.868 78.5171L168.838 68.7932L172.804 78.5171H171.359L171.067 77.7463H166.622L166.313 78.5171H164.868Z" fill="currentColor"/>
<path d="M183.541 74.4189C183.832 74.4189 184.099 74.3564 184.345 74.2314C184.586 74.1064 184.795 73.9438 184.974 73.7397C185.153 73.5356 185.295 73.3022 185.399 73.0439C185.507 72.7815 185.557 72.5066 185.557 72.2234C185.557 71.9482 185.507 71.6775 185.399 71.4109C185.295 71.1443 185.153 70.915 184.974 70.7151C184.795 70.5151 184.586 70.3528 184.345 70.2278C184.099 70.1028 183.832 70.0403 183.541 70.0403H181.645V74.4189H183.541ZM186.899 73.2107C186.774 73.6106 186.59 73.969 186.349 74.2854C186.107 74.6021 185.807 74.873 185.453 75.0938C185.436 75.1145 185.411 75.127 185.386 75.1355C185.361 75.1438 185.336 75.1562 185.32 75.1729L187.032 78.5432H185.532L184.032 75.6104C183.924 75.6311 183.82 75.6436 183.711 75.6521C183.607 75.6604 183.495 75.6646 183.37 75.6646H181.633V78.5432H180.212V68.7944H183.37C183.766 68.7944 184.141 68.8445 184.491 68.9487C184.841 69.0486 185.161 69.1904 185.453 69.3652C186.169 69.8152 186.653 70.4485 186.899 71.261C186.907 71.3066 186.919 71.3442 186.924 71.3816C186.936 71.415 186.949 71.4568 186.965 71.5024V71.5691C186.982 71.6108 186.994 71.6609 186.999 71.7151C187.003 71.7649 187.007 71.8191 187.019 71.8733V71.8857C187.028 71.9399 187.032 71.99 187.032 72.0442V72.2148V72.2317V72.2566V72.4148C187.032 72.469 187.028 72.5232 187.019 72.5732V72.6023C187.007 72.6565 187.003 72.7065 186.999 72.7524C186.994 72.8022 186.982 72.8523 186.965 72.9065V72.9607C186.932 73.0564 186.907 73.1399 186.899 73.2107Z" fill="currentColor"/>
<path d="M194.437 68.8079H200.649V70.1743H198.245V78.519H196.841V70.1743H194.437V68.8079Z" fill="currentColor"/>
<path d="M209.395 78.5562H208.053V68.6492L214.348 76.1689V68.8201H215.686V78.5562H214.386L209.395 72.4153V78.5562Z" fill="currentColor"/>
<path d="M224.498 77.1106H228.827V78.5061H223.09V68.8201H228.731V70.1865H224.498V71.7195V72.5112V73.4778H228.306V74.8025H224.498V77.1106Z" fill="currentColor"/>
<path d="M239.563 74.4189C239.855 74.4189 240.122 74.3564 240.367 74.2314C240.609 74.1064 240.817 73.9438 240.997 73.7397C241.176 73.5356 241.317 73.3022 241.422 73.0439C241.53 72.7815 241.58 72.5066 241.58 72.2234C241.58 71.9482 241.53 71.6775 241.422 71.4109C241.317 71.1443 241.176 70.915 240.997 70.7151C240.817 70.5151 240.609 70.3528 240.367 70.2278C240.122 70.1028 239.855 70.0403 239.563 70.0403H237.668V74.4189H239.563ZM242.921 73.2107C242.796 73.6106 242.613 73.969 242.371 74.2854C242.126 74.6021 241.83 74.873 241.476 75.0938C241.455 75.1145 241.434 75.127 241.409 75.1355C241.38 75.1438 241.359 75.1562 241.342 75.1729L243.055 78.5432H241.555L240.055 75.6104C239.947 75.6311 239.843 75.6436 239.734 75.6521C239.63 75.6604 239.513 75.6646 239.393 75.6646H237.655V78.5432H236.23V68.7944H239.393C239.788 68.7944 240.163 68.8445 240.513 68.9487C240.863 69.0486 241.184 69.1904 241.476 69.3652C242.192 69.8152 242.675 70.4485 242.921 71.261C242.93 71.3066 242.942 71.3442 242.946 71.3816C242.959 71.415 242.971 71.4568 242.988 71.5024V71.5691C243.005 71.6108 243.017 71.6609 243.021 71.7151C243.025 71.7649 243.034 71.8191 243.042 71.8733V71.8857C243.05 71.9399 243.055 71.99 243.055 72.0442V72.2148V72.2317V72.2566V72.4148C243.055 72.469 243.05 72.5232 243.042 72.5732V72.6023C243.034 72.6565 243.025 72.7065 243.021 72.7524C243.017 72.8022 243.005 72.8523 242.988 72.9065V72.9607C242.955 73.0564 242.93 73.1399 242.921 73.2107Z" fill="currentColor"/>
<path d="M255.795 73.6885C255.857 73.7344 255.916 73.7844 255.97 73.8425C256.02 73.9009 256.07 73.9551 256.111 74.0093C256.316 74.2634 256.478 74.5425 256.591 74.8508C256.707 75.155 256.766 75.4758 256.766 75.8132C256.766 75.8923 256.757 75.9507 256.753 75.9966C256.724 76.4924 256.574 76.938 256.299 77.3381C256.053 77.7087 255.732 78.0005 255.345 78.217C254.953 78.438 254.52 78.542 254.045 78.542H253.166C252.691 78.542 252.258 78.438 251.866 78.217C251.479 78.0005 251.158 77.7087 250.912 77.3381C250.841 77.2297 250.77 77.1047 250.7 76.9673L251.933 76.009C251.958 76.1799 252.016 76.334 252.099 76.4797C252.183 76.6257 252.287 76.7549 252.412 76.8672C252.533 76.9756 252.674 77.063 252.837 77.1255C252.995 77.1838 253.162 77.2173 253.341 77.2173H253.87C254.233 77.2173 254.549 77.1006 254.812 76.8672C255.078 76.6299 255.237 76.3423 255.291 75.9966C255.291 75.9631 255.295 75.9258 255.295 75.8923C255.303 75.855 255.303 75.8215 255.303 75.7842C255.303 75.5884 255.27 75.4092 255.199 75.2383C255.128 75.0718 255.028 74.9258 254.907 74.7966C254.782 74.6675 254.637 74.5635 254.466 74.4841C254.299 74.405 254.124 74.3591 253.937 74.3508H253.178H253.128C252.799 74.3425 252.491 74.28 252.208 74.1592C251.916 74.0427 251.658 73.8801 251.429 73.676C251.304 73.5886 251.2 73.4802 251.112 73.3552C250.908 73.1011 250.745 72.822 250.633 72.5137C250.516 72.2095 250.458 71.8887 250.458 71.5554V71.3679C250.504 70.8638 250.658 70.418 250.925 70.0264C251.17 69.6558 251.491 69.364 251.879 69.1475C252.27 68.9307 252.704 68.8225 253.178 68.8225H254.045C254.52 68.8225 254.957 68.9307 255.349 69.1475C255.745 69.364 256.066 69.6558 256.311 70.0264C256.341 70.0723 256.366 70.1223 256.399 70.1724C256.428 70.2266 256.457 70.2764 256.486 70.3181L255.278 71.2598C255.199 70.9431 255.028 70.6807 254.774 70.468C254.516 70.2515 254.22 70.1472 253.883 70.1472H253.353C253.174 70.1472 253.004 70.1807 252.841 70.239C252.679 70.3015 252.533 70.3889 252.412 70.5015C252.287 70.6096 252.183 70.7388 252.099 70.8889C252.016 71.043 251.958 71.2014 251.933 71.3679C251.925 71.4055 251.92 71.4387 251.92 71.4722V71.5803C251.92 71.7761 251.954 71.9553 252.024 72.1221C252.095 72.2927 252.195 72.4387 252.32 72.5679C252.441 72.697 252.587 72.801 252.754 72.8804C252.924 72.9595 253.104 73.0054 253.287 73.0137H254.045H254.095C254.424 73.022 254.732 73.0845 255.02 73.2053C255.307 73.3259 255.566 73.4844 255.795 73.6885Z" fill="currentColor"/>
</svg>
