<svg width="1000" height="251" viewBox="0 0 1000 251" fill="none" xmlns="http://www.w3.org/2000/svg">
<g clip-path="url(#clip0_436_183)">
<path opacity="0.05" d="M53.4526 208.087L0 225.052V251H1000V48.9074L962.146 70.8632H908.693L855.241 3L801.788 41.4225L748.336 38.9276L694.883 82.34L641.431 80.3441L587.978 126.252L534.526 132.738L481.073 70.8632L427.62 105.294L374.168 103.298L320.715 146.211L267.263 142.219L213.81 185.632L160.358 183.636L106.905 210.082L53.4526 208.087Z" fill="currentColor"/>
<path d="M0 225L53.4526 208.038L106.905 210.034L160.358 183.593L213.81 185.589L267.263 142.187L320.715 146.178L374.168 103.274L427.62 105.27L481.073 70.8472L534.526 132.708L587.978 126.222L641.431 80.3258L694.883 82.3213L748.336 38.9191L801.788 41.4135L855.241 3L908.693 70.8472H962.146L1000 48.8966" stroke="currentColor" stroke-width="2"/>
</g>
<defs>
<clipPath id="clip0_436_183">
<rect width="1000" height="251" fill="white"/>
</clipPath>
</defs>
</svg>
