<svg width="438" height="150" viewBox="0 0 438 150" fill="none" xmlns="http://www.w3.org/2000/svg">
<path d="M213.445 80.7872C221.128 94.1433 215.977 115.387 210.388 127.645C200.061 150.263 198.091 102.105 197.642 97.0703C197.3 93.2077 194.782 76.2077 197.847 73.4646C202.236 69.5312 211.239 76.7516 213.445 80.7872ZM90.0889 89.144C82.5122 109.004 56.7774 82.2557 69.0993 67.6106C71.4966 64.7651 74.9178 63.4836 78.5296 63.8719C78.6003 70.2446 83.8185 79.0463 90.6361 78.976C91.3211 82.337 91.3211 85.9135 90.0889 89.144ZM242.216 49.9752C239.646 49.9752 230.707 48.9585 230.604 53.3435C223.335 54.1837 208.308 59.5186 203.016 56.9024C193.79 52.3371 195.898 24.6114 202.695 19.319C210.155 13.5109 210.469 26.5108 209.869 31.6866C209.403 38.0383 201.568 44.6723 204.361 47.1862C211.514 53.467 219.74 33.2048 220.51 28.4457C222.028 17.1227 217.329 -0.276008 204.132 2.40354C194.221 4.41604 191.012 18.1361 189.515 26.9591C188.343 32.7175 189.681 56.0903 186.447 59.0667C184.392 60.959 179.876 58.9571 177.595 60.6483C175.558 62.163 173.341 67.5789 175.3 69.962C176.875 71.8793 179.767 70.1035 181.744 70.8343C187.845 73.1009 186.768 73.6692 186.337 80.1727C182.584 84.9036 167.508 102.899 163.886 91.0047C162.389 86.0794 165.676 77.2705 165.524 71.9569C165.249 62.2267 162.004 51.105 151.539 48.849C143.179 47.0449 129.413 52.482 126.92 61.803C126.751 57.2626 123.001 50.9075 117.998 51.345C110.983 51.9595 112.992 60.9166 113.034 65.9831C109.359 66.4458 105.313 66.7739 101.698 65.7148C97.6126 57.0542 94.7528 60.108 87.6245 57.3826C82.3921 55.3843 84.0798 51.3169 78.1413 49.7389C66.5714 46.6673 55.2099 55.2571 52.4206 66.442C51.5062 70.1068 51.3473 74.0011 51.5591 77.7683C48.2157 87.4177 37.0695 115.811 23.3918 104.46C11.6773 94.74 13.3472 67.6708 14.523 54.3004C14.9996 48.8844 18.3749 17.6772 28.9385 21.5642C35.0994 23.831 31.4487 34.9136 32.4761 39.2847C33.553 43.8603 34.1815 45.2372 38.8949 42.9387C46.0055 39.4751 45.7337 28.3501 44.3144 21.8291C42.5385 13.6841 37.9769 5.69075 28.7902 8.34919C12.2034 13.1474 4.82432 38.4972 2.20457 53.4848C-1.13891 72.642 -2.01099 101.953 11.8891 117.46C24.1474 131.137 41.0733 118.614 49.7303 106.967C52.2759 103.542 54.5779 99.849 56.6433 96.0993C66.2077 112.372 92.9451 116.941 102.909 98.4261C106.376 91.9862 105.313 85.4227 104.872 78.3756C107.601 78.0861 110.694 77.8567 113.239 76.7057C113.423 84.1553 110.916 110.112 123.856 109.449C132.17 109.018 129.904 82.4641 132.177 75.7206C135.786 65.0016 149.802 55.9386 150.53 71.9147C150.964 81.3696 147.86 90.7471 152.09 99.7677C159.346 115.239 175.569 105.385 185.557 96.6182C186.069 109.646 185.638 139.544 196.827 147.558C207.274 155.04 216.912 139.731 220.319 131.321C226.085 117.092 234.791 85.1087 221.94 74.4283C218.762 71.7875 208.291 69.1572 208.347 66.0045C208.407 62.5478 229.277 58.9465 232.758 58.7911C237.051 58.6041 233.905 85.2814 239.311 95.8451C240.377 97.9316 247.18 105.261 250.001 103.817C252.505 102.536 249.599 90.0902 248.822 80.0773C248.148 71.3532 248.752 63.035 248.939 55.7125C248.967 54.7452 249.196 53.2872 248.66 52.3797C247.491 50.4097 244.264 49.9752 242.216 49.9752ZM251.795 28.3184C254.983 24.4914 249.73 18.1537 245.761 17.8572C240.917 17.4937 234.474 29.9885 234.827 35.1291C234.975 37.2722 236.211 39.2423 237.715 40.6651C247.096 49.5339 247.759 33.1483 251.795 28.3184ZM341.963 88.1095C336.47 102.511 322.669 92.5794 319.406 82.7748C315.014 69.5633 327.502 54.8758 337.995 67.6284C342.302 72.8607 344.414 81.6872 341.963 88.1095ZM433.996 63.4339C426.967 43.2036 397.242 46.3565 386.919 61.1355C385.757 57.3615 384.317 53.3505 380.317 51.9384C371.179 48.7079 372.821 59.7975 373.587 65.6442C374.509 72.642 375.79 79.5125 376.288 86.5772C369.689 95.4497 363.867 93.0207 360.923 82.5698C358.455 73.8246 361.731 56.4857 353.251 51.1369C349.042 48.4818 345.434 49.647 341.755 52.2808C318.743 39.0904 299.236 59.2291 304.334 83.601C293.993 93.0418 268.188 104.647 269.745 80.134C270.038 75.5477 272.276 63.6282 278.268 63.0528C283.458 62.5513 282.402 67.7979 285.025 70.6435C294.643 81.0766 295.508 57.665 287.825 51.3169C268.632 35.461 253.804 71.4945 256.565 86.7291C261.412 113.47 291.769 113.883 308.006 98.0378C308.493 97.5611 308.97 97.0668 309.443 96.576C319.131 110.9 343.019 115.235 353.593 99.3971C359.751 107.694 368.807 110.222 376.998 103.341C377.093 108.531 372.108 155.4 390.976 148.472C399.894 145.196 393.034 122.233 392.508 115.182C391.752 105.085 390.792 93.9457 392.582 83.954C394.305 74.3083 405.282 55.7056 416.453 65.8491C423.948 72.656 418.271 84.706 412.35 90.355C409.78 92.8088 406.436 93.7798 403.838 95.9864C398.4 100.604 398.468 108.915 407.231 109.343C408.138 109.388 408.975 108.972 409.822 108.735C409.815 108.739 409.811 108.739 409.804 108.739C426.652 104.552 439.938 80.5081 433.996 63.4339Z" fill="currentColor"/>
</svg>
