<svg width="1000" height="100" viewBox="0 0 1000 100" fill="none" xmlns="http://www.w3.org/2000/svg">
<g clip-path="url(#clip0_434_141)">
<mask id="mask0_434_141" style="mask-type:alpha" maskUnits="userSpaceOnUse" x="0" y="0" width="1000" height="100">
<rect width="1000" height="100" fill="url(#paint0_linear_434_141)"/>
</mask>
<g mask="url(#mask0_434_141)">
<rect x="501" width="199" height="100" fill="currentColor" fill-opacity="0.03"/>
<g opacity="0.5">
<path d="M47.1199 18V12.04H47.9999L50.2399 15.144H49.7999L51.9999 12.04H52.8799V18H51.9439V13.152L52.2959 13.248L50.0479 16.32H49.9519L47.7519 13.248L48.0639 13.152V18H47.1199Z" fill="currentColor"/>
</g>
<g opacity="0.5">
<path d="M747.12 18V12.04H748L750.24 15.144H749.8L752 12.04H752.88V18H751.944V13.152L752.296 13.248L750.048 16.32H749.952L747.752 13.248L748.064 13.152V18H747.12Z" fill="currentColor"/>
</g>
<g opacity="0.5">
<path d="M149.543 18V12.88H147.959V12.04H152.039V12.88H150.479V18H149.543Z" fill="currentColor"/>
</g>
<g opacity="0.5">
<path d="M849.543 18V12.88H847.959V12.04H852.039V12.88H850.479V18H849.543Z" fill="currentColor"/>
</g>
<g opacity="0.5">
<path d="M947.697 18L946.057 12.04H947.057L948.385 17.2H948.137L949.513 12.04H950.497L951.873 17.2H951.617L952.953 12.04H953.945L952.313 18H951.249L949.865 12.92H950.145L948.753 18H947.697Z" fill="currentColor"/>
</g>
<g opacity="0.5">
<path d="M247.697 18L246.057 12.04H247.057L248.385 17.2H248.137L249.513 12.04H250.497L251.873 17.2H251.617L252.953 12.04H253.945L252.313 18H251.249L249.865 12.92H250.145L248.753 18H247.697Z" fill="currentColor"/>
</g>
<g opacity="0.5">
<path d="M349.543 18V12.88H347.959V12.04H352.039V12.88H350.479V18H349.543Z" fill="currentColor"/>
</g>
<g opacity="0.5">
<path d="M448.28 18V12.04H452.16V12.88H449.224V14.672H451.84V15.512H449.224V18H448.28Z" fill="currentColor"/>
</g>
<g opacity="0.25">
<path d="M550.114 18.096C549.741 18.096 549.394 18.0267 549.074 17.888C548.754 17.744 548.482 17.5493 548.258 17.304C548.034 17.0587 547.869 16.776 547.762 16.456L548.562 16.12C548.706 16.488 548.917 16.7707 549.194 16.968C549.471 17.1653 549.791 17.264 550.154 17.264C550.367 17.264 550.554 17.232 550.714 17.168C550.874 17.0987 550.997 17.0027 551.082 16.88C551.173 16.7573 551.218 16.616 551.218 16.456C551.218 16.2373 551.157 16.064 551.034 15.936C550.911 15.808 550.73 15.7067 550.49 15.632L549.37 15.28C548.922 15.1413 548.581 14.9307 548.346 14.648C548.111 14.36 547.994 14.024 547.994 13.64C547.994 13.304 548.077 13.0107 548.242 12.76C548.407 12.504 548.634 12.304 548.922 12.16C549.215 12.016 549.549 11.944 549.922 11.944C550.279 11.944 550.605 12.008 550.898 12.136C551.191 12.2587 551.442 12.4293 551.65 12.648C551.863 12.8667 552.018 13.12 552.114 13.408L551.33 13.752C551.213 13.4373 551.029 13.1947 550.778 13.024C550.533 12.8533 550.247 12.768 549.922 12.768C549.725 12.768 549.551 12.8027 549.402 12.872C549.253 12.936 549.135 13.032 549.05 13.16C548.97 13.2827 548.93 13.4267 548.93 13.592C548.93 13.784 548.991 13.9547 549.114 14.104C549.237 14.2533 549.423 14.3653 549.674 14.44L550.714 14.768C551.189 14.912 551.546 15.12 551.786 15.392C552.026 15.6587 552.146 15.992 552.146 16.392C552.146 16.7227 552.058 17.016 551.882 17.272C551.711 17.528 551.474 17.7307 551.17 17.88C550.866 18.024 550.514 18.096 550.114 18.096Z" fill="currentColor"/>
</g>
<g opacity="0.25">
<path d="M650.114 18.096C649.741 18.096 649.394 18.0267 649.074 17.888C648.754 17.744 648.482 17.5493 648.258 17.304C648.034 17.0587 647.869 16.776 647.762 16.456L648.562 16.12C648.706 16.488 648.917 16.7707 649.194 16.968C649.471 17.1653 649.791 17.264 650.154 17.264C650.367 17.264 650.554 17.232 650.714 17.168C650.874 17.0987 650.997 17.0027 651.082 16.88C651.173 16.7573 651.218 16.616 651.218 16.456C651.218 16.2373 651.157 16.064 651.034 15.936C650.911 15.808 650.73 15.7067 650.49 15.632L649.37 15.28C648.922 15.1413 648.581 14.9307 648.346 14.648C648.111 14.36 647.994 14.024 647.994 13.64C647.994 13.304 648.077 13.0107 648.242 12.76C648.407 12.504 648.634 12.304 648.922 12.16C649.215 12.016 649.549 11.944 649.922 11.944C650.279 11.944 650.605 12.008 650.898 12.136C651.191 12.2587 651.442 12.4293 651.65 12.648C651.863 12.8667 652.018 13.12 652.114 13.408L651.33 13.752C651.213 13.4373 651.029 13.1947 650.778 13.024C650.533 12.8533 650.247 12.768 649.922 12.768C649.725 12.768 649.551 12.8027 649.402 12.872C649.253 12.936 649.135 13.032 649.05 13.16C648.97 13.2827 648.93 13.4267 648.93 13.592C648.93 13.784 648.991 13.9547 649.114 14.104C649.237 14.2533 649.423 14.3653 649.674 14.44L650.714 14.768C651.189 14.912 651.546 15.12 651.786 15.392C652.026 15.6587 652.146 15.992 652.146 16.392C652.146 16.7227 652.058 17.016 651.882 17.272C651.711 17.528 651.474 17.7307 651.17 17.88C650.866 18.024 650.514 18.096 650.114 18.096Z" fill="currentColor"/>
</g>
<line opacity="0.1" x1="-4.37114e-08" y1="26.5" x2="1000" y2="26.4999" stroke="currentColor"/>
<line opacity="0.1" x1="100.5" y1="2.18557e-08" x2="100.5" y2="100" stroke="currentColor"/>
<line opacity="0.1" x1="200.5" y1="2.18557e-08" x2="200.5" y2="100" stroke="currentColor"/>
<line opacity="0.1" x1="300.5" y1="2.18557e-08" x2="300.5" y2="100" stroke="currentColor"/>
<line opacity="0.1" x1="400.5" y1="2.18557e-08" x2="400.5" y2="100" stroke="currentColor"/>
<line opacity="0.1" x1="500.5" y1="2.18557e-08" x2="500.5" y2="100" stroke="currentColor"/>
<line opacity="0.1" x1="600.5" y1="2.18557e-08" x2="600.5" y2="100" stroke="currentColor"/>
<line opacity="0.1" x1="700.5" y1="2.18557e-08" x2="700.5" y2="100" stroke="currentColor"/>
<line opacity="0.1" x1="800.5" y1="2.18557e-08" x2="800.5" y2="100" stroke="currentColor"/>
<line opacity="0.1" x1="900.5" y1="2.18557e-08" x2="900.5" y2="100" stroke="currentColor"/>
<rect x="8" y="35" width="84" height="16" rx="3" fill="#5769C7" fill-opacity="0.35"/>
<path d="M15.408 46.096C14.9867 46.096 14.5973 46.0213 14.24 45.872C13.888 45.7173 13.5787 45.5013 13.312 45.224C13.0507 44.9467 12.848 44.6213 12.704 44.248C12.56 43.8747 12.488 43.4667 12.488 43.024C12.488 42.576 12.56 42.1653 12.704 41.792C12.848 41.4187 13.0507 41.0933 13.312 40.816C13.5733 40.5387 13.8827 40.3253 14.24 40.176C14.5973 40.0213 14.9867 39.944 15.408 39.944C15.8187 39.944 16.1867 40.016 16.512 40.16C16.8427 40.304 17.12 40.4907 17.344 40.72C17.5733 40.9493 17.736 41.1947 17.832 41.456L17.112 41.784C16.9733 41.4533 16.7573 41.1867 16.464 40.984C16.1707 40.776 15.8187 40.672 15.408 40.672C14.992 40.672 14.6213 40.7707 14.296 40.968C13.976 41.1653 13.7253 41.44 13.544 41.792C13.3627 42.144 13.272 42.5547 13.272 43.024C13.272 43.488 13.3627 43.896 13.544 44.248C13.7253 44.6 13.976 44.8747 14.296 45.072C14.6213 45.2693 14.992 45.368 15.408 45.368C15.8187 45.368 16.1707 45.2667 16.464 45.064C16.7573 44.856 16.9733 44.5867 17.112 44.256L17.832 44.584C17.736 44.8453 17.5733 45.0907 17.344 45.32C17.12 45.5493 16.8427 45.736 16.512 45.88C16.1867 46.024 15.8187 46.096 15.408 46.096ZM18.8104 46V41.688H19.5544V46H18.8104ZM18.8104 41V40.04H19.5544V41H18.8104ZM22.7088 46.096C22.2875 46.096 21.9115 45.9973 21.5808 45.8C21.2555 45.6027 20.9995 45.3333 20.8128 44.992C20.6261 44.6507 20.5328 44.2667 20.5328 43.84C20.5328 43.408 20.6261 43.024 20.8128 42.688C20.9995 42.352 21.2555 42.0853 21.5808 41.888C21.9115 41.6907 22.2875 41.592 22.7088 41.592C22.9915 41.592 23.2555 41.6427 23.5008 41.744C23.7461 41.8453 23.9621 41.9813 24.1488 42.152C24.3355 42.3227 24.4715 42.5227 24.5568 42.752L23.8928 43.072C23.7915 42.848 23.6368 42.6667 23.4288 42.528C23.2208 42.384 22.9808 42.312 22.7088 42.312C22.4475 42.312 22.2101 42.3787 21.9968 42.512C21.7888 42.6453 21.6235 42.8267 21.5008 43.056C21.3781 43.2853 21.3168 43.5493 21.3168 43.848C21.3168 44.136 21.3781 44.3973 21.5008 44.632C21.6235 44.8613 21.7888 45.0427 21.9968 45.176C22.2101 45.3093 22.4475 45.376 22.7088 45.376C22.9808 45.376 23.2208 45.3067 23.4288 45.168C23.6368 45.024 23.7915 44.8347 23.8928 44.6L24.5568 44.936C24.4715 45.16 24.3355 45.36 24.1488 45.536C23.9621 45.7067 23.7461 45.8427 23.5008 45.944C23.2555 46.0453 22.9915 46.096 22.7088 46.096ZM25.5291 46V39.944H26.2731V44.096L25.9691 44.024L28.2571 41.688H29.2091L27.5531 43.424L29.3211 46H28.4411L26.8251 43.664L27.2891 43.64L26.0331 44.952L26.2731 44.408V46H25.5291ZM30.0461 44.184V43.504H33.0461V44.184H30.0461ZM36.2959 46.096C35.8799 46.096 35.5039 46 35.1679 45.808C34.8319 45.6107 34.5652 45.3413 34.3679 45C34.1705 44.6587 34.0719 44.272 34.0719 43.84C34.0719 43.408 34.1679 43.024 34.3599 42.688C34.5572 42.352 34.8239 42.0853 35.1599 41.888C35.4959 41.6907 35.8745 41.592 36.2959 41.592C36.7119 41.592 37.0879 41.6907 37.4239 41.888C37.7599 42.08 38.0239 42.344 38.2159 42.68C38.4132 43.016 38.5119 43.4027 38.5119 43.84C38.5119 44.2773 38.4105 44.6667 38.2079 45.008C38.0052 45.344 37.7359 45.6107 37.3999 45.808C37.0692 46 36.7012 46.096 36.2959 46.096ZM36.2959 45.376C36.5625 45.376 36.8025 45.3093 37.0159 45.176C37.2345 45.0427 37.4052 44.8587 37.5279 44.624C37.6559 44.3893 37.7199 44.128 37.7199 43.84C37.7199 43.5467 37.6559 43.288 37.5279 43.064C37.4052 42.8347 37.2345 42.6533 37.0159 42.52C36.8025 42.3813 36.5625 42.312 36.2959 42.312C36.0239 42.312 35.7785 42.3813 35.5599 42.52C35.3465 42.6533 35.1759 42.8347 35.0479 43.064C34.9199 43.288 34.8559 43.5467 34.8559 43.84C34.8559 44.128 34.9199 44.3893 35.0479 44.624C35.1759 44.8587 35.3465 45.0427 35.5599 45.176C35.7785 45.3093 36.0239 45.376 36.2959 45.376ZM39.8054 46V42.4H38.9814V41.688H39.8054V41.384C39.8054 41.0747 39.8721 40.8133 40.0054 40.6C40.1441 40.3867 40.3254 40.224 40.5494 40.112C40.7788 40 41.0321 39.944 41.3094 39.944C41.3681 39.944 41.4321 39.9493 41.5014 39.96C41.5761 39.9653 41.6374 39.9733 41.6854 39.984V40.648C41.6428 40.6373 41.5921 40.632 41.5334 40.632C41.4748 40.6267 41.4294 40.624 41.3974 40.624C41.1521 40.624 40.9494 40.6827 40.7894 40.8C40.6348 40.9173 40.5574 41.112 40.5574 41.384V41.688H42.7974V42.4H40.5574V46H39.8054ZM42.9094 46V42.4H42.0774V41.688H42.9094V41.384C42.9094 41.0747 42.9761 40.8133 43.1094 40.6C43.2428 40.3867 43.4214 40.224 43.6454 40.112C43.8748 40 44.1308 39.944 44.4134 39.944C44.4668 39.944 44.5281 39.9493 44.5974 39.96C44.6721 39.9653 44.7334 39.9733 44.7814 39.984V40.648C44.7388 40.6373 44.6881 40.632 44.6294 40.632C44.5708 40.6267 44.5281 40.624 44.5014 40.624C44.2508 40.624 44.0454 40.6827 43.8854 40.8C43.7308 40.9173 43.6534 41.112 43.6534 41.384V41.688H44.6774V42.4H43.6534V46H42.9094Z" fill="currentColor"/>
<rect x="108" y="35" width="184" height="16" rx="3" fill="url(#paint1_linear_434_141)"/>
<path d="M112.088 46L114.224 40.04H115.152L117.288 46H116.448L115.96 44.6H113.416L112.928 46H112.088ZM113.664 43.88H115.712L114.576 40.608H114.8L113.664 43.88ZM119.495 46.096C119.063 46.096 118.687 45.9893 118.367 45.776C118.047 45.5627 117.82 45.2747 117.687 44.912L118.279 44.624C118.402 44.88 118.57 45.0827 118.783 45.232C118.996 45.3813 119.234 45.456 119.495 45.456C119.73 45.456 119.924 45.4 120.079 45.288C120.234 45.176 120.311 45.0293 120.311 44.848C120.311 44.72 120.274 44.6187 120.199 44.544C120.13 44.464 120.044 44.4027 119.943 44.36C119.842 44.312 119.748 44.2773 119.663 44.256L119.015 44.072C118.626 43.96 118.34 43.8 118.159 43.592C117.983 43.384 117.895 43.1413 117.895 42.864C117.895 42.608 117.959 42.3867 118.087 42.2C118.22 42.008 118.399 41.8587 118.623 41.752C118.852 41.6453 119.108 41.592 119.391 41.592C119.77 41.592 120.108 41.688 120.407 41.88C120.711 42.072 120.927 42.3413 121.055 42.688L120.447 42.968C120.351 42.744 120.207 42.568 120.015 42.44C119.823 42.3067 119.607 42.24 119.367 42.24C119.148 42.24 118.975 42.296 118.847 42.408C118.719 42.5147 118.655 42.6507 118.655 42.816C118.655 42.9387 118.687 43.04 118.751 43.12C118.815 43.1947 118.892 43.2533 118.983 43.296C119.074 43.3333 119.162 43.3653 119.247 43.392L119.951 43.6C120.303 43.7013 120.575 43.8587 120.767 44.072C120.964 44.2853 121.063 44.5413 121.063 44.84C121.063 45.08 120.996 45.296 120.863 45.488C120.73 45.68 120.546 45.8293 120.311 45.936C120.076 46.0427 119.804 46.096 119.495 46.096ZM123.581 46.096C123.149 46.096 122.773 45.9893 122.453 45.776C122.133 45.5627 121.906 45.2747 121.773 44.912L122.365 44.624C122.488 44.88 122.656 45.0827 122.869 45.232C123.082 45.3813 123.32 45.456 123.581 45.456C123.816 45.456 124.01 45.4 124.165 45.288C124.32 45.176 124.397 45.0293 124.397 44.848C124.397 44.72 124.36 44.6187 124.285 44.544C124.216 44.464 124.13 44.4027 124.029 44.36C123.928 44.312 123.834 44.2773 123.749 44.256L123.101 44.072C122.712 43.96 122.426 43.8 122.245 43.592C122.069 43.384 121.981 43.1413 121.981 42.864C121.981 42.608 122.045 42.3867 122.173 42.2C122.306 42.008 122.485 41.8587 122.709 41.752C122.938 41.6453 123.194 41.592 123.477 41.592C123.856 41.592 124.194 41.688 124.493 41.88C124.797 42.072 125.013 42.3413 125.141 42.688L124.533 42.968C124.437 42.744 124.293 42.568 124.101 42.44C123.909 42.3067 123.693 42.24 123.453 42.24C123.234 42.24 123.061 42.296 122.933 42.408C122.805 42.5147 122.741 42.6507 122.741 42.816C122.741 42.9387 122.773 43.04 122.837 43.12C122.901 43.1947 122.978 43.2533 123.069 43.296C123.16 43.3333 123.248 43.3653 123.333 43.392L124.037 43.6C124.389 43.7013 124.661 43.8587 124.853 44.072C125.05 44.2853 125.149 44.5413 125.149 44.84C125.149 45.08 125.082 45.296 124.949 45.488C124.816 45.68 124.632 45.8293 124.397 45.936C124.162 46.0427 123.89 46.096 123.581 46.096ZM128.107 46.096C127.691 46.096 127.32 45.9973 126.995 45.8C126.67 45.6027 126.414 45.3333 126.227 44.992C126.04 44.6453 125.947 44.2587 125.947 43.832C125.947 43.4 126.038 43.016 126.219 42.68C126.406 42.344 126.656 42.08 126.971 41.888C127.291 41.6907 127.648 41.592 128.043 41.592C128.363 41.592 128.646 41.6507 128.891 41.768C129.142 41.88 129.352 42.0347 129.523 42.232C129.699 42.424 129.832 42.6453 129.923 42.896C130.019 43.1413 130.067 43.3973 130.067 43.664C130.067 43.7227 130.062 43.7893 130.051 43.864C130.046 43.9333 130.038 44 130.027 44.064H126.491V43.424H129.595L129.243 43.712C129.291 43.4347 129.264 43.1867 129.163 42.968C129.062 42.7493 128.912 42.576 128.715 42.448C128.518 42.32 128.294 42.256 128.043 42.256C127.792 42.256 127.563 42.32 127.355 42.448C127.147 42.576 126.984 42.76 126.867 43C126.755 43.2347 126.71 43.5147 126.731 43.84C126.71 44.1547 126.758 44.432 126.875 44.672C126.998 44.9067 127.168 45.0907 127.387 45.224C127.611 45.352 127.854 45.416 128.115 45.416C128.403 45.416 128.646 45.3493 128.843 45.216C129.04 45.0827 129.2 44.912 129.323 44.704L129.947 45.024C129.862 45.2213 129.728 45.4027 129.547 45.568C129.371 45.728 129.16 45.856 128.915 45.952C128.675 46.048 128.406 46.096 128.107 46.096ZM132.581 46.096C132.149 46.096 131.773 45.9893 131.453 45.776C131.133 45.5627 130.906 45.2747 130.773 44.912L131.365 44.624C131.488 44.88 131.656 45.0827 131.869 45.232C132.082 45.3813 132.32 45.456 132.581 45.456C132.816 45.456 133.01 45.4 133.165 45.288C133.32 45.176 133.397 45.0293 133.397 44.848C133.397 44.72 133.36 44.6187 133.285 44.544C133.216 44.464 133.13 44.4027 133.029 44.36C132.928 44.312 132.834 44.2773 132.749 44.256L132.101 44.072C131.712 43.96 131.426 43.8 131.245 43.592C131.069 43.384 130.981 43.1413 130.981 42.864C130.981 42.608 131.045 42.3867 131.173 42.2C131.306 42.008 131.485 41.8587 131.709 41.752C131.938 41.6453 132.194 41.592 132.477 41.592C132.856 41.592 133.194 41.688 133.493 41.88C133.797 42.072 134.013 42.3413 134.141 42.688L133.533 42.968C133.437 42.744 133.293 42.568 133.101 42.44C132.909 42.3067 132.693 42.24 132.453 42.24C132.234 42.24 132.061 42.296 131.933 42.408C131.805 42.5147 131.741 42.6507 131.741 42.816C131.741 42.9387 131.773 43.04 131.837 43.12C131.901 43.1947 131.978 43.2533 132.069 43.296C132.16 43.3333 132.248 43.3653 132.333 43.392L133.037 43.6C133.389 43.7013 133.661 43.8587 133.853 44.072C134.05 44.2853 134.149 44.5413 134.149 44.84C134.149 45.08 134.082 45.296 133.949 45.488C133.816 45.68 133.632 45.8293 133.397 45.936C133.162 46.0427 132.89 46.096 132.581 46.096ZM136.667 46.096C136.235 46.096 135.859 45.9893 135.539 45.776C135.219 45.5627 134.992 45.2747 134.859 44.912L135.451 44.624C135.574 44.88 135.742 45.0827 135.955 45.232C136.168 45.3813 136.406 45.456 136.667 45.456C136.902 45.456 137.096 45.4 137.251 45.288C137.406 45.176 137.483 45.0293 137.483 44.848C137.483 44.72 137.446 44.6187 137.371 44.544C137.302 44.464 137.216 44.4027 137.115 44.36C137.014 44.312 136.92 44.2773 136.835 44.256L136.187 44.072C135.798 43.96 135.512 43.8 135.331 43.592C135.155 43.384 135.067 43.1413 135.067 42.864C135.067 42.608 135.131 42.3867 135.259 42.2C135.392 42.008 135.571 41.8587 135.795 41.752C136.024 41.6453 136.28 41.592 136.563 41.592C136.942 41.592 137.28 41.688 137.579 41.88C137.883 42.072 138.099 42.3413 138.227 42.688L137.619 42.968C137.523 42.744 137.379 42.568 137.187 42.44C136.995 42.3067 136.779 42.24 136.539 42.24C136.32 42.24 136.147 42.296 136.019 42.408C135.891 42.5147 135.827 42.6507 135.827 42.816C135.827 42.9387 135.859 43.04 135.923 43.12C135.987 43.1947 136.064 43.2533 136.155 43.296C136.246 43.3333 136.334 43.3653 136.419 43.392L137.123 43.6C137.475 43.7013 137.747 43.8587 137.939 44.072C138.136 44.2853 138.235 44.5413 138.235 44.84C138.235 45.08 138.168 45.296 138.035 45.488C137.902 45.68 137.718 45.8293 137.483 45.936C137.248 46.0427 136.976 46.096 136.667 46.096ZM139.209 46V41.688H139.937V42.568L139.833 42.432C139.939 42.16 140.11 41.952 140.345 41.808C140.579 41.664 140.843 41.592 141.137 41.592C141.473 41.592 141.774 41.6853 142.041 41.872C142.313 42.0587 142.499 42.304 142.601 42.608L142.393 42.616C142.505 42.28 142.694 42.0267 142.961 41.856C143.227 41.68 143.523 41.592 143.849 41.592C144.147 41.592 144.417 41.6613 144.657 41.8C144.902 41.9387 145.097 42.1307 145.241 42.376C145.385 42.6213 145.457 42.8987 145.457 43.208V46H144.705V43.448C144.705 43.208 144.662 43.0053 144.577 42.84C144.491 42.6747 144.374 42.5467 144.225 42.456C144.081 42.36 143.91 42.312 143.713 42.312C143.521 42.312 143.347 42.36 143.193 42.456C143.043 42.5467 142.923 42.6773 142.833 42.848C142.747 43.0133 142.705 43.2133 142.705 43.448V46H141.953V43.448C141.953 43.208 141.91 43.0053 141.825 42.84C141.739 42.6747 141.622 42.5467 141.473 42.456C141.329 42.36 141.158 42.312 140.961 42.312C140.769 42.312 140.595 42.36 140.441 42.456C140.291 42.5467 140.171 42.6773 140.081 42.848C139.995 43.0133 139.953 43.2133 139.953 43.448V46H139.209ZM148.498 46.096C148.082 46.096 147.711 45.9973 147.386 45.8C147.06 45.6027 146.804 45.3333 146.618 44.992C146.431 44.6453 146.338 44.2587 146.338 43.832C146.338 43.4 146.428 43.016 146.61 42.68C146.796 42.344 147.047 42.08 147.362 41.888C147.682 41.6907 148.039 41.592 148.434 41.592C148.754 41.592 149.036 41.6507 149.282 41.768C149.532 41.88 149.743 42.0347 149.914 42.232C150.09 42.424 150.223 42.6453 150.314 42.896C150.41 43.1413 150.457 43.3973 150.457 43.664C150.457 43.7227 150.452 43.7893 150.442 43.864C150.436 43.9333 150.428 44 150.418 44.064H146.882V43.424H149.986L149.634 43.712C149.682 43.4347 149.655 43.1867 149.554 42.968C149.452 42.7493 149.303 42.576 149.106 42.448C148.908 42.32 148.684 42.256 148.434 42.256C148.183 42.256 147.954 42.32 147.746 42.448C147.538 42.576 147.375 42.76 147.258 43C147.146 43.2347 147.1 43.5147 147.122 43.84C147.1 44.1547 147.148 44.432 147.266 44.672C147.388 44.9067 147.559 45.0907 147.778 45.224C148.002 45.352 148.244 45.416 148.506 45.416C148.794 45.416 149.036 45.3493 149.234 45.216C149.431 45.0827 149.591 44.912 149.714 44.704L150.338 45.024C150.252 45.2213 150.119 45.4027 149.938 45.568C149.762 45.728 149.551 45.856 149.306 45.952C149.066 46.048 148.796 46.096 148.498 46.096ZM151.428 46V41.688H152.156V42.528L152.036 42.456C152.142 42.184 152.313 41.9733 152.548 41.824C152.788 41.6693 153.068 41.592 153.388 41.592C153.697 41.592 153.972 41.6613 154.212 41.8C154.457 41.9387 154.649 42.1307 154.788 42.376C154.932 42.6213 155.004 42.8987 155.004 43.208V46H154.252V43.448C154.252 43.208 154.209 43.0053 154.124 42.84C154.038 42.6747 153.916 42.5467 153.756 42.456C153.601 42.36 153.422 42.312 153.22 42.312C153.017 42.312 152.836 42.36 152.676 42.456C152.521 42.5467 152.398 42.6773 152.308 42.848C152.217 43.0133 152.172 43.2133 152.172 43.448V46H151.428ZM157.82 46.048C157.399 46.048 157.074 45.928 156.844 45.688C156.62 45.448 156.508 45.1093 156.508 44.672V42.4H155.724V41.688H155.884C156.076 41.688 156.228 41.6293 156.34 41.512C156.452 41.3947 156.508 41.24 156.508 41.048V40.696H157.252V41.688H158.22V42.4H157.252V44.648C157.252 44.792 157.274 44.9173 157.316 45.024C157.364 45.1307 157.442 45.216 157.548 45.28C157.655 45.3387 157.796 45.368 157.972 45.368C158.01 45.368 158.055 45.3653 158.108 45.36C158.167 45.3547 158.22 45.3493 158.268 45.344V46C158.199 46.016 158.122 46.0267 158.036 46.032C157.951 46.0427 157.879 46.048 157.82 46.048Z" fill="currentColor"/>
<rect x="308" y="35" width="186" height="16" rx="3" fill="url(#paint2_linear_434_141)"/>
<path d="M312.664 46V40.04H314.768C315.163 40.04 315.509 40.1147 315.808 40.264C316.107 40.4133 316.339 40.6267 316.504 40.904C316.675 41.1813 316.76 41.5067 316.76 41.88C316.76 42.2533 316.675 42.5787 316.504 42.856C316.339 43.128 316.107 43.3413 315.808 43.496C315.515 43.6453 315.168 43.72 314.768 43.72H313.448V46H312.664ZM313.448 43H314.792C315.032 43 315.24 42.9547 315.416 42.864C315.592 42.7733 315.728 42.6427 315.824 42.472C315.92 42.3013 315.968 42.104 315.968 41.88C315.968 41.6507 315.92 41.4533 315.824 41.288C315.728 41.1173 315.592 40.9867 315.416 40.896C315.24 40.8053 315.032 40.76 314.792 40.76H313.448V43ZM317.732 46V41.688H318.476V46H317.732ZM317.732 41V40.04H318.476V41H317.732ZM319.631 46V39.944H320.375V46H319.631ZM323.577 46.096C323.161 46.096 322.785 46 322.449 45.808C322.113 45.6107 321.846 45.3413 321.649 45C321.452 44.6587 321.353 44.272 321.353 43.84C321.353 43.408 321.449 43.024 321.641 42.688C321.838 42.352 322.105 42.0853 322.441 41.888C322.777 41.6907 323.156 41.592 323.577 41.592C323.993 41.592 324.369 41.6907 324.705 41.888C325.041 42.08 325.305 42.344 325.497 42.68C325.694 43.016 325.793 43.4027 325.793 43.84C325.793 44.2773 325.692 44.6667 325.489 45.008C325.286 45.344 325.017 45.6107 324.681 45.808C324.35 46 323.982 46.096 323.577 46.096ZM323.577 45.376C323.844 45.376 324.084 45.3093 324.297 45.176C324.516 45.0427 324.686 44.8587 324.809 44.624C324.937 44.3893 325.001 44.128 325.001 43.84C325.001 43.5467 324.937 43.288 324.809 43.064C324.686 42.8347 324.516 42.6533 324.297 42.52C324.084 42.3813 323.844 42.312 323.577 42.312C323.305 42.312 323.06 42.3813 322.841 42.52C322.628 42.6533 322.457 42.8347 322.329 43.064C322.201 43.288 322.137 43.5467 322.137 43.84C322.137 44.128 322.201 44.3893 322.329 44.624C322.457 44.8587 322.628 45.0427 322.841 45.176C323.06 45.3093 323.305 45.376 323.577 45.376ZM328.437 46.048C328.016 46.048 327.691 45.928 327.461 45.688C327.237 45.448 327.125 45.1093 327.125 44.672V42.4H326.341V41.688H326.501C326.693 41.688 326.845 41.6293 326.957 41.512C327.069 41.3947 327.125 41.24 327.125 41.048V40.696H327.869V41.688H328.837V42.4H327.869V44.648C327.869 44.792 327.891 44.9173 327.933 45.024C327.981 45.1307 328.059 45.216 328.165 45.28C328.272 45.3387 328.413 45.368 328.589 45.368C328.627 45.368 328.672 45.3653 328.725 45.36C328.784 45.3547 328.837 45.3493 328.885 45.344V46C328.816 46.016 328.739 46.0267 328.653 46.032C328.568 46.0427 328.496 46.048 328.437 46.048Z" fill="currentColor"/>
<rect x="708" y="35" width="284" height="16" rx="3" fill="url(#paint3_linear_434_141)"/>
<path d="M712.664 46V40.04H713.448V46H712.664ZM714.685 46V41.688H715.413V42.568L715.309 42.432C715.416 42.16 715.587 41.952 715.821 41.808C716.056 41.664 716.32 41.592 716.613 41.592C716.949 41.592 717.251 41.6853 717.517 41.872C717.789 42.0587 717.976 42.304 718.077 42.608L717.869 42.616C717.981 42.28 718.171 42.0267 718.437 41.856C718.704 41.68 719 41.592 719.325 41.592C719.624 41.592 719.893 41.6613 720.133 41.8C720.379 41.9387 720.573 42.1307 720.717 42.376C720.861 42.6213 720.933 42.8987 720.933 43.208V46H720.181V43.448C720.181 43.208 720.139 43.0053 720.053 42.84C719.968 42.6747 719.851 42.5467 719.701 42.456C719.557 42.36 719.387 42.312 719.189 42.312C718.997 42.312 718.824 42.36 718.669 42.456C718.52 42.5467 718.4 42.6773 718.309 42.848C718.224 43.0133 718.181 43.2133 718.181 43.448V46H717.429V43.448C717.429 43.208 717.387 43.0053 717.301 42.84C717.216 42.6747 717.099 42.5467 716.949 42.456C716.805 42.36 716.635 42.312 716.437 42.312C716.245 42.312 716.072 42.36 715.917 42.456C715.768 42.5467 715.648 42.6773 715.557 42.848C715.472 43.0133 715.429 43.2133 715.429 43.448V46H714.685ZM721.99 47.6V41.688H722.718V42.616L722.622 42.432C722.782 42.176 723.001 41.9733 723.278 41.824C723.555 41.6693 723.873 41.592 724.23 41.592C724.635 41.592 724.998 41.6907 725.318 41.888C725.643 42.0853 725.899 42.3547 726.086 42.696C726.273 43.032 726.366 43.416 726.366 43.848C726.366 44.2693 726.273 44.6507 726.086 44.992C725.899 45.3333 725.643 45.6027 725.318 45.8C724.998 45.9973 724.633 46.096 724.222 46.096C723.875 46.096 723.558 46.0187 723.27 45.864C722.987 45.7093 722.769 45.4907 722.614 45.208L722.734 45.08V47.6H721.99ZM724.166 45.376C724.438 45.376 724.681 45.3093 724.894 45.176C725.107 45.0427 725.273 44.8613 725.39 44.632C725.513 44.3973 725.574 44.136 725.574 43.848C725.574 43.5493 725.513 43.288 725.39 43.064C725.273 42.8347 725.107 42.6533 724.894 42.52C724.681 42.3813 724.438 42.312 724.166 42.312C723.894 42.312 723.649 42.3787 723.43 42.512C723.217 42.6453 723.046 42.8293 722.918 43.064C722.795 43.2933 722.734 43.5547 722.734 43.848C722.734 44.136 722.795 44.3973 722.918 44.632C723.046 44.8613 723.217 45.0427 723.43 45.176C723.649 45.3093 723.894 45.376 724.166 45.376ZM727.342 46V39.944H728.086V46H727.342ZM731.224 46.096C730.808 46.096 730.437 45.9973 730.112 45.8C729.787 45.6027 729.531 45.3333 729.344 44.992C729.157 44.6453 729.064 44.2587 729.064 43.832C729.064 43.4 729.155 43.016 729.336 42.68C729.523 42.344 729.773 42.08 730.088 41.888C730.408 41.6907 730.765 41.592 731.16 41.592C731.48 41.592 731.763 41.6507 732.008 41.768C732.259 41.88 732.469 42.0347 732.64 42.232C732.816 42.424 732.949 42.6453 733.04 42.896C733.136 43.1413 733.184 43.3973 733.184 43.664C733.184 43.7227 733.179 43.7893 733.168 43.864C733.163 43.9333 733.155 44 733.144 44.064H729.608V43.424H732.712L732.36 43.712C732.408 43.4347 732.381 43.1867 732.28 42.968C732.179 42.7493 732.029 42.576 731.832 42.448C731.635 42.32 731.411 42.256 731.16 42.256C730.909 42.256 730.68 42.32 730.472 42.448C730.264 42.576 730.101 42.76 729.984 43C729.872 43.2347 729.827 43.5147 729.848 43.84C729.827 44.1547 729.875 44.432 729.992 44.672C730.115 44.9067 730.285 45.0907 730.504 45.224C730.728 45.352 730.971 45.416 731.232 45.416C731.52 45.416 731.763 45.3493 731.96 45.216C732.157 45.0827 732.317 44.912 732.44 44.704L733.064 45.024C732.979 45.2213 732.845 45.4027 732.664 45.568C732.488 45.728 732.277 45.856 732.032 45.952C731.792 46.048 731.523 46.096 731.224 46.096ZM734.154 46V41.688H734.882V42.568L734.778 42.432C734.885 42.16 735.055 41.952 735.29 41.808C735.525 41.664 735.789 41.592 736.082 41.592C736.418 41.592 736.719 41.6853 736.986 41.872C737.258 42.0587 737.445 42.304 737.546 42.608L737.338 42.616C737.45 42.28 737.639 42.0267 737.906 41.856C738.173 41.68 738.469 41.592 738.794 41.592C739.093 41.592 739.362 41.6613 739.602 41.8C739.847 41.9387 740.042 42.1307 740.186 42.376C740.33 42.6213 740.402 42.8987 740.402 43.208V46H739.65V43.448C739.65 43.208 739.607 43.0053 739.522 42.84C739.437 42.6747 739.319 42.5467 739.17 42.456C739.026 42.36 738.855 42.312 738.658 42.312C738.466 42.312 738.293 42.36 738.138 42.456C737.989 42.5467 737.869 42.6773 737.778 42.848C737.693 43.0133 737.65 43.2133 737.65 43.448V46H736.898V43.448C736.898 43.208 736.855 43.0053 736.77 42.84C736.685 42.6747 736.567 42.5467 736.418 42.456C736.274 42.36 736.103 42.312 735.906 42.312C735.714 42.312 735.541 42.36 735.386 42.456C735.237 42.5467 735.117 42.6773 735.026 42.848C734.941 43.0133 734.898 43.2133 734.898 43.448V46H734.154ZM743.443 46.096C743.027 46.096 742.656 45.9973 742.331 45.8C742.005 45.6027 741.749 45.3333 741.563 44.992C741.376 44.6453 741.283 44.2587 741.283 43.832C741.283 43.4 741.373 43.016 741.555 42.68C741.741 42.344 741.992 42.08 742.307 41.888C742.627 41.6907 742.984 41.592 743.379 41.592C743.699 41.592 743.981 41.6507 744.227 41.768C744.477 41.88 744.688 42.0347 744.859 42.232C745.035 42.424 745.168 42.6453 745.259 42.896C745.355 43.1413 745.403 43.3973 745.403 43.664C745.403 43.7227 745.397 43.7893 745.387 43.864C745.381 43.9333 745.373 44 745.363 44.064H741.827V43.424H744.931L744.579 43.712C744.627 43.4347 744.6 43.1867 744.499 42.968C744.397 42.7493 744.248 42.576 744.051 42.448C743.853 42.32 743.629 42.256 743.379 42.256C743.128 42.256 742.899 42.32 742.691 42.448C742.483 42.576 742.32 42.76 742.203 43C742.091 43.2347 742.045 43.5147 742.067 43.84C742.045 44.1547 742.093 44.432 742.211 44.672C742.333 44.9067 742.504 45.0907 742.723 45.224C742.947 45.352 743.189 45.416 743.451 45.416C743.739 45.416 743.981 45.3493 744.179 45.216C744.376 45.0827 744.536 44.912 744.659 44.704L745.283 45.024C745.197 45.2213 745.064 45.4027 744.883 45.568C744.707 45.728 744.496 45.856 744.251 45.952C744.011 46.048 743.741 46.096 743.443 46.096ZM746.373 46V41.688H747.101V42.528L746.981 42.456C747.088 42.184 747.258 41.9733 747.493 41.824C747.733 41.6693 748.013 41.592 748.333 41.592C748.642 41.592 748.917 41.6613 749.157 41.8C749.402 41.9387 749.594 42.1307 749.733 42.376C749.877 42.6213 749.949 42.8987 749.949 43.208V46H749.197V43.448C749.197 43.208 749.154 43.0053 749.069 42.84C748.984 42.6747 748.861 42.5467 748.701 42.456C748.546 42.36 748.368 42.312 748.165 42.312C747.962 42.312 747.781 42.36 747.621 42.456C747.466 42.5467 747.344 42.6773 747.253 42.848C747.162 43.0133 747.117 43.2133 747.117 43.448V46H746.373ZM752.766 46.048C752.344 46.048 752.019 45.928 751.79 45.688C751.566 45.448 751.454 45.1093 751.454 44.672V42.4H750.67V41.688H750.83C751.022 41.688 751.174 41.6293 751.286 41.512C751.398 41.3947 751.454 41.24 751.454 41.048V40.696H752.198V41.688H753.166V42.4H752.198V44.648C752.198 44.792 752.219 44.9173 752.262 45.024C752.31 45.1307 752.387 45.216 752.493 45.28C752.6 45.3387 752.742 45.368 752.918 45.368C752.955 45.368 753 45.3653 753.054 45.36C753.112 45.3547 753.166 45.3493 753.214 45.344V46C753.144 46.016 753.067 46.0267 752.982 46.032C752.896 46.0427 752.824 46.048 752.766 46.048ZM755.395 46.096C755.112 46.096 754.861 46.0453 754.643 45.944C754.429 45.8373 754.261 45.6933 754.139 45.512C754.016 45.3253 753.955 45.112 753.955 44.872C753.955 44.6427 754.003 44.4373 754.099 44.256C754.2 44.0693 754.355 43.912 754.563 43.784C754.776 43.656 755.043 43.5653 755.363 43.512L756.963 43.248V43.872L755.531 44.112C755.253 44.16 755.051 44.248 754.923 44.376C754.8 44.504 754.739 44.6613 754.739 44.848C754.739 45.024 754.808 45.1707 754.947 45.288C755.091 45.4053 755.269 45.464 755.483 45.464C755.755 45.464 755.989 45.408 756.187 45.296C756.389 45.1787 756.547 45.0213 756.659 44.824C756.776 44.6267 756.835 44.408 756.835 44.168V43.072C756.835 42.8373 756.747 42.648 756.571 42.504C756.4 42.3547 756.173 42.28 755.891 42.28C755.645 42.28 755.427 42.344 755.235 42.472C755.048 42.5947 754.909 42.76 754.819 42.968L754.171 42.632C754.251 42.4347 754.379 42.2587 754.555 42.104C754.731 41.944 754.936 41.8187 755.171 41.728C755.405 41.6373 755.651 41.592 755.907 41.592C756.237 41.592 756.528 41.656 756.779 41.784C757.029 41.9067 757.224 42.08 757.363 42.304C757.507 42.5227 757.579 42.7787 757.579 43.072V46H756.851V45.184L756.987 45.232C756.896 45.4027 756.773 45.552 756.619 45.68C756.464 45.808 756.283 45.9093 756.075 45.984C755.867 46.0587 755.64 46.096 755.395 46.096ZM760.406 46.048C759.985 46.048 759.659 45.928 759.43 45.688C759.206 45.448 759.094 45.1093 759.094 44.672V42.4H758.31V41.688H758.47C758.662 41.688 758.814 41.6293 758.926 41.512C759.038 41.3947 759.094 41.24 759.094 41.048V40.696H759.838V41.688H760.806V42.4H759.838V44.648C759.838 44.792 759.859 44.9173 759.902 45.024C759.95 45.1307 760.027 45.216 760.134 45.28C760.241 45.3387 760.382 45.368 760.558 45.368C760.595 45.368 760.641 45.3653 760.694 45.36C760.753 45.3547 760.806 45.3493 760.854 45.344V46C760.785 46.016 760.707 46.0267 760.622 46.032C760.537 46.0427 760.465 46.048 760.406 46.048ZM761.826 46V41.688H762.57V46H761.826ZM761.826 41V40.04H762.57V41H761.826ZM765.772 46.096C765.356 46.096 764.98 46 764.644 45.808C764.308 45.6107 764.042 45.3413 763.844 45C763.647 44.6587 763.548 44.272 763.548 43.84C763.548 43.408 763.644 43.024 763.836 42.688C764.034 42.352 764.3 42.0853 764.636 41.888C764.972 41.6907 765.351 41.592 765.772 41.592C766.188 41.592 766.564 41.6907 766.9 41.888C767.236 42.08 767.5 42.344 767.692 42.68C767.89 43.016 767.988 43.4027 767.988 43.84C767.988 44.2773 767.887 44.6667 767.684 45.008C767.482 45.344 767.212 45.6107 766.876 45.808C766.546 46 766.178 46.096 765.772 46.096ZM765.772 45.376C766.039 45.376 766.279 45.3093 766.492 45.176C766.711 45.0427 766.882 44.8587 767.004 44.624C767.132 44.3893 767.196 44.128 767.196 43.84C767.196 43.5467 767.132 43.288 767.004 43.064C766.882 42.8347 766.711 42.6533 766.492 42.52C766.279 42.3813 766.039 42.312 765.772 42.312C765.5 42.312 765.255 42.3813 765.036 42.52C764.823 42.6533 764.652 42.8347 764.524 43.064C764.396 43.288 764.332 43.5467 764.332 43.84C764.332 44.128 764.396 44.3893 764.524 44.624C764.652 44.8587 764.823 45.0427 765.036 45.176C765.255 45.3093 765.5 45.376 765.772 45.376ZM768.959 46V41.688H769.687V42.528L769.567 42.456C769.673 42.184 769.844 41.9733 770.079 41.824C770.319 41.6693 770.599 41.592 770.919 41.592C771.228 41.592 771.503 41.6613 771.743 41.8C771.988 41.9387 772.18 42.1307 772.319 42.376C772.463 42.6213 772.535 42.8987 772.535 43.208V46H771.783V43.448C771.783 43.208 771.74 43.0053 771.655 42.84C771.569 42.6747 771.447 42.5467 771.287 42.456C771.132 42.36 770.953 42.312 770.751 42.312C770.548 42.312 770.367 42.36 770.207 42.456C770.052 42.5467 769.929 42.6773 769.839 42.848C769.748 43.0133 769.703 43.2133 769.703 43.448V46H768.959Z" fill="currentColor"/>
</g>
</g>
<defs>
<linearGradient id="paint0_linear_434_141" x1="500" y1="0" x2="500" y2="100" gradientUnits="userSpaceOnUse">
<stop offset="0.25" stop-color="#090909"/>
<stop offset="1" stop-opacity="0"/>
</linearGradient>
<linearGradient id="paint1_linear_434_141" x1="108" y1="43" x2="292" y2="43" gradientUnits="userSpaceOnUse">
<stop stop-color="#5769C7" stop-opacity="0.35"/>
<stop offset="1" stop-color="#5769C7" stop-opacity="0"/>
</linearGradient>
<linearGradient id="paint2_linear_434_141" x1="308" y1="43" x2="494" y2="43" gradientUnits="userSpaceOnUse">
<stop stop-color="#5769C7" stop-opacity="0.35"/>
<stop offset="1" stop-color="#5769C7" stop-opacity="0"/>
</linearGradient>
<linearGradient id="paint3_linear_434_141" x1="708" y1="43" x2="992" y2="43" gradientUnits="userSpaceOnUse">
<stop stop-color="#5769C7" stop-opacity="0.35"/>
<stop offset="1" stop-color="#5769C7" stop-opacity="0"/>
</linearGradient>
<clipPath id="clip0_434_141">
<rect width="1000" height="100" fill="white"/>
</clipPath>
</defs>
</svg>
