<svg width="469" height="576" viewBox="0 0 469 576" fill="none" xmlns="http://www.w3.org/2000/svg">
<path d="M92 356H78C76.8954 356 76 356.895 76 358V426C76 427.105 76.8954 428 78 428H92" stroke="currentColor" stroke-width="2" stroke-linecap="round"/>
<path d="M76 393C76.5523 393 77 392.552 77 392C77 391.448 76.5523 391 76 391V393ZM52.2929 391.293C51.9024 391.683 51.9024 392.317 52.2929 392.707L58.6569 399.071C59.0474 399.462 59.6805 399.462 60.0711 399.071C60.4616 398.681 60.4616 398.047 60.0711 397.657L54.4142 392L60.0711 386.343C60.4616 385.953 60.4616 385.319 60.0711 384.929C59.6805 384.538 59.0474 384.538 58.6569 384.929L52.2929 391.293ZM76 391H53V393H76V391Z" fill="currentColor"/>
<rect x="5" y="372" width="40" height="40" rx="4" stroke="currentColor" stroke-width="2"/>
<path d="M15 372V348" stroke="currentColor" stroke-width="2" stroke-linecap="round"/>
<path d="M35 372V364" stroke="currentColor" stroke-width="2" stroke-linecap="round"/>
<path d="M16.224 397V386.57H23.154V388.25H18.128V390.924H22.874V392.604H18.128V395.32H23.154V397H16.224ZM30.8502 397.168C30.1035 397.168 29.4129 397.033 28.7782 396.762C28.1529 396.491 27.6022 396.113 27.1262 395.628C26.6595 395.143 26.2955 394.573 26.0342 393.92C25.7729 393.267 25.6422 392.553 25.6422 391.778C25.6422 391.003 25.7682 390.289 26.0202 389.636C26.2815 388.973 26.6455 388.404 27.1122 387.928C27.5882 387.443 28.1435 387.069 28.7782 386.808C29.4129 386.537 30.1035 386.402 30.8502 386.402C31.5969 386.402 32.2642 386.528 32.8522 386.78C33.4495 387.032 33.9535 387.368 34.3642 387.788C34.7749 388.199 35.0689 388.651 35.2462 389.146L33.5382 389.944C33.3422 389.421 33.0109 388.992 32.5442 388.656C32.0775 388.311 31.5129 388.138 30.8502 388.138C30.1969 388.138 29.6182 388.292 29.1142 388.6C28.6195 388.908 28.2322 389.333 27.9522 389.874C27.6815 390.415 27.5462 391.05 27.5462 391.778C27.5462 392.506 27.6815 393.145 27.9522 393.696C28.2322 394.237 28.6195 394.662 29.1142 394.97C29.6182 395.278 30.1969 395.432 30.8502 395.432C31.5129 395.432 32.0775 395.264 32.5442 394.928C33.0109 394.583 33.3422 394.149 33.5382 393.626L35.2462 394.424C35.0689 394.919 34.7749 395.376 34.3642 395.796C33.9535 396.207 33.4495 396.538 32.8522 396.79C32.2642 397.042 31.5969 397.168 30.8502 397.168Z" fill="currentColor"/>
<path d="M7.925 355.2C4.025 351.3 4.025 344.9 7.925 341" stroke="#CCCCCC" stroke-width="2" stroke-linecap="round" stroke-linejoin="round"/>
<path d="M10.725 352.5C8.425 350.2 8.425 346.4 10.725 344" stroke="#808080" stroke-width="2" stroke-linecap="round" stroke-linejoin="round"/>
<path d="M19 344C21.3 346.3 21.3 350.1 19 352.5" stroke="#808080" stroke-width="2" stroke-linecap="round" stroke-linejoin="round"/>
<path d="M22 341C25.9 344.9 25.9 351.2 22 355.1" stroke="#CCCCCC" stroke-width="2" stroke-linecap="round" stroke-linejoin="round"/>
<path d="M150 350H138C136.895 350 136 350.895 136 352V364C136 365.105 136.895 366 138 366H150C151.105 366 152 365.105 152 364V352C152 350.895 151.105 350 150 350Z" stroke="currentColor" stroke-width="2" stroke-linecap="round" stroke-linejoin="round"/>
<path d="M146 355H142C141.448 355 141 355.448 141 356V360C141 360.552 141.448 361 142 361H146C146.552 361 147 360.552 147 360V356C147 355.448 146.552 355 146 355Z" stroke="currentColor" stroke-width="2" stroke-linecap="round" stroke-linejoin="round"/>
<path d="M147 348V350" stroke="currentColor" stroke-width="2" stroke-linecap="round" stroke-linejoin="round"/>
<path d="M147 366V368" stroke="currentColor" stroke-width="2" stroke-linecap="round" stroke-linejoin="round"/>
<path d="M134 361H136" stroke="currentColor" stroke-width="2" stroke-linecap="round" stroke-linejoin="round"/>
<path d="M134 355H136" stroke="currentColor" stroke-width="2" stroke-linecap="round" stroke-linejoin="round"/>
<path d="M152 361H154" stroke="currentColor" stroke-width="2" stroke-linecap="round" stroke-linejoin="round"/>
<path d="M152 355H154" stroke="currentColor" stroke-width="2" stroke-linecap="round" stroke-linejoin="round"/>
<path d="M141 348V350" stroke="currentColor" stroke-width="2" stroke-linecap="round" stroke-linejoin="round"/>
<path d="M141 366V368" stroke="currentColor" stroke-width="2" stroke-linecap="round" stroke-linejoin="round"/>
<path d="M147 395C147.2 394 147.7 393.3 148.5 392.5C149.5 391.6 150 390.3 150 389C150 387.409 149.368 385.883 148.243 384.757C147.117 383.632 145.591 383 144 383C142.409 383 140.883 383.632 139.757 384.757C138.632 385.883 138 387.409 138 389C138 390 138.2 391.2 139.5 392.5C140.2 393.2 140.8 394 141 395" stroke="currentColor" stroke-width="2" stroke-linecap="round" stroke-linejoin="round"/>
<path d="M141 399H147" stroke="currentColor" stroke-width="2" stroke-linecap="round" stroke-linejoin="round"/>
<path d="M142 403H146" stroke="currentColor" stroke-width="2" stroke-linecap="round" stroke-linejoin="round"/>
<path d="M106 425H104C103.47 425 102.961 424.789 102.586 424.414C102.211 424.039 102 423.53 102 423V418C102 417.47 102.211 416.961 102.586 416.586C102.961 416.211 103.47 416 104 416H120C120.53 416 121.039 416.211 121.414 416.586C121.789 416.961 122 417.47 122 418V423C122 423.53 121.789 424.039 121.414 424.414C121.039 424.789 120.53 425 120 425H118" stroke="currentColor" stroke-width="2" stroke-linecap="round" stroke-linejoin="round"/>
<path d="M106 421H118" stroke="currentColor" stroke-width="2" stroke-linecap="round" stroke-linejoin="round"/>
<path d="M118.3 430.7C118.723 431.142 118.969 431.725 118.992 432.336C119.014 432.948 118.811 433.547 118.422 434.019C118.032 434.491 117.483 434.804 116.878 434.898C116.273 434.992 115.655 434.861 115.14 434.53C114.805 434.311 114.528 434.015 114.329 433.667C114.131 433.319 114.018 432.93 114 432.53V425" stroke="currentColor" stroke-width="2" stroke-linecap="round" stroke-linejoin="round"/>
<path d="M106.6 428.6C106.364 428.832 106.189 429.118 106.09 429.434C105.992 429.75 105.974 430.086 106.037 430.411C106.1 430.735 106.243 431.039 106.453 431.295C106.663 431.551 106.933 431.751 107.239 431.877C107.545 432.003 107.877 432.052 108.206 432.017C108.536 431.983 108.851 431.868 109.125 431.682C109.398 431.496 109.622 431.245 109.774 430.951C109.927 430.658 110.005 430.331 110 430V425" stroke="currentColor" stroke-width="2" stroke-linecap="round" stroke-linejoin="round"/>
<path d="M114 350V360.54C114.763 360.98 115.359 361.66 115.696 362.473C116.032 363.287 116.092 364.189 115.864 365.039C115.636 365.89 115.134 366.641 114.435 367.178C113.736 367.714 112.881 368.004 112 368.004C111.119 368.004 110.264 367.714 109.565 367.178C108.866 366.641 108.364 365.89 108.136 365.039C107.908 364.189 107.968 363.287 108.304 362.473C108.641 361.66 109.237 360.98 110 360.54V350C110 349.47 110.211 348.961 110.586 348.586C110.961 348.211 111.47 348 112 348C112.53 348 113.039 348.211 113.414 348.586C113.789 348.961 114 349.47 114 350Z" stroke="currentColor" stroke-width="2" stroke-linecap="round" stroke-linejoin="round"/>
<path d="M120 383H104C102.895 383 102 383.895 102 385V401C102 402.105 102.895 403 104 403H120C121.105 403 122 402.105 122 401V385C122 383.895 121.105 383 120 383Z" stroke="currentColor" stroke-width="2" stroke-linecap="round" stroke-linejoin="round"/>
<path d="M114 389H110V397H114V389Z" stroke="currentColor" stroke-width="2" stroke-linecap="round" stroke-linejoin="round"/>
<path d="M110 393H114" stroke="currentColor" stroke-width="2" stroke-linecap="round" stroke-linejoin="round"/>
<rect x="134" y="415" width="20" height="20" rx="7" stroke="currentColor" stroke-width="2"/>
<circle cx="142" cy="423" r="2" stroke="currentColor" stroke-width="2"/>
<path d="M26 420C26 419.448 25.5523 419 25 419C24.4477 419 24 419.448 24 420H26ZM194.707 555.707C195.098 555.317 195.098 554.683 194.707 554.293L188.343 547.929C187.953 547.538 187.319 547.538 186.929 547.929C186.538 548.319 186.538 548.953 186.929 549.343L192.586 555L186.929 560.657C186.538 561.047 186.538 561.681 186.929 562.071C187.319 562.462 187.953 562.462 188.343 562.071L194.707 555.707ZM24.0001 423.052C24.0001 423.604 24.4479 424.052 25.0001 424.052C25.5524 424.052 26.0001 423.604 26.0001 423.052L24.0001 423.052ZM26.002 429.016C26.0016 428.464 25.5536 428.016 25.0013 428.017C24.449 428.017 24.0016 428.465 24.002 429.017L26.002 429.016ZM24.0096 434.969C24.0107 435.521 24.4593 435.968 25.0116 435.967C25.5639 435.966 26.0107 435.517 26.0096 434.965L24.0096 434.969ZM26.0275 440.927C26.0252 440.375 25.5756 439.929 25.0233 439.931C24.4711 439.933 24.0252 440.383 24.0275 440.935L26.0275 440.927ZM24.0615 446.902C24.0656 447.454 24.5166 447.898 25.0688 447.894C25.6211 447.89 26.0655 447.439 26.0614 446.887L24.0615 446.902ZM26.1178 452.817C26.1113 452.265 25.6583 451.823 25.106 451.829C24.5538 451.836 24.1114 452.289 24.118 452.841L26.1178 452.817ZM24.2065 458.843C24.2164 459.395 24.672 459.835 25.2242 459.825C25.7764 459.815 26.216 459.359 26.2061 458.807L24.2065 458.843ZM26.3333 464.677C26.3191 464.125 25.86 463.689 25.3079 463.703C24.7558 463.717 24.3198 464.177 24.334 464.729L26.3333 464.677ZM24.5198 470.768C24.5398 471.32 25.0034 471.751 25.5553 471.731C26.1072 471.711 26.5385 471.247 26.5185 470.695L24.5198 470.768ZM26.7713 476.63C26.744 476.078 26.2747 475.653 25.7231 475.68C25.1714 475.708 24.7464 476.177 24.7738 476.729L26.7713 476.63ZM25.1143 482.628C25.1509 483.179 25.6274 483.596 26.1785 483.559C26.7295 483.522 27.1465 483.046 27.1098 482.495L25.1143 482.628ZM27.5719 488.473C27.5229 487.923 27.0373 487.517 26.4872 487.566C25.9371 487.615 25.5308 488.1 25.5797 488.65L27.5719 488.473ZM26.1931 494.62C26.2578 495.169 26.7548 495.561 27.3033 495.496C27.8518 495.432 28.244 494.935 28.1794 494.386L26.1931 494.62ZM28.9741 500.244C28.8894 499.698 28.3783 499.324 27.8325 499.409C27.2868 499.494 26.9131 500.005 26.9978 500.55L28.9741 500.244ZM28.0516 506.446C28.1623 506.987 28.6906 507.336 29.2317 507.225C29.7728 507.115 30.1217 506.586 30.011 506.045L28.0516 506.446ZM31.3612 511.773C31.2171 511.24 30.668 510.924 30.1349 511.069C29.6017 511.213 29.2863 511.762 29.4304 512.295L31.3612 511.773ZM31.23 518.058C31.4167 518.577 31.9894 518.847 32.5092 518.661C33.029 518.474 33.299 517.901 33.1123 517.382L31.23 518.058ZM35.3626 522.789C35.1234 522.291 34.526 522.081 34.0282 522.32C33.5304 522.56 33.3208 523.157 33.56 523.655L35.3626 522.789ZM36.5243 528.963C36.8244 529.427 37.4435 529.559 37.9072 529.259C38.3708 528.959 38.5035 528.34 38.2035 527.876L36.5243 528.963ZM41.6917 532.511C41.3283 532.095 40.6966 532.053 40.2807 532.416C39.8648 532.78 39.8223 533.411 40.1857 533.827L41.6917 532.511ZM44.5269 538.105C44.9479 538.462 45.579 538.411 45.9364 537.99C46.2939 537.569 46.2424 536.937 45.8213 536.58L44.5269 538.105ZM50.5138 540.025C50.0475 539.729 49.4296 539.867 49.1336 540.333C48.8377 540.8 48.9757 541.417 49.442 541.713L50.5138 540.025ZM54.7643 544.654C55.2621 544.893 55.8595 544.683 56.0986 544.186C56.3378 543.688 56.128 543.09 55.6302 542.851L54.7643 544.654ZM61.0286 545.125C60.5105 544.934 59.9355 545.199 59.7445 545.717C59.5534 546.235 59.8186 546.81 60.3368 547.001L61.0286 545.125ZM66.0828 548.871C66.6137 549.023 67.1674 548.715 67.3194 548.185C67.4715 547.654 67.1643 547.1 66.6334 546.948L66.0828 548.871ZM72.3351 548.397C71.7963 548.276 71.2612 548.614 71.1399 549.153C71.0187 549.692 71.3572 550.227 71.896 550.348L72.3351 548.397ZM77.7483 551.523C78.292 551.62 78.8114 551.258 78.9084 550.714C79.0054 550.17 78.6433 549.651 78.0996 549.554L77.7483 551.523ZM83.9287 550.484C83.3819 550.406 82.8757 550.786 82.7979 551.333C82.7202 551.88 83.1004 552.386 83.6472 552.464L83.9287 550.484ZM89.6062 553.222C90.155 553.285 90.6504 552.89 90.7127 552.342C90.775 551.793 90.3807 551.297 89.8319 551.235L89.6062 553.222ZM95.7796 551.84C95.2296 551.79 94.7432 552.196 94.6933 552.746C94.6433 553.296 95.0487 553.782 95.5988 553.832L95.7796 551.84ZM101.489 554.312C102.04 554.352 102.519 553.938 102.559 553.387C102.599 552.837 102.185 552.358 101.634 552.317L101.489 554.312ZM107.596 552.706C107.044 552.674 106.571 553.095 106.539 553.647C106.507 554.198 106.928 554.671 107.48 554.703L107.596 552.706ZM113.441 555.013C113.993 555.039 114.461 554.612 114.486 554.06C114.512 553.509 114.085 553.041 113.534 553.015L113.441 555.013ZM119.45 553.26C118.898 553.239 118.435 553.67 118.414 554.222C118.394 554.774 118.825 555.238 119.377 555.258L119.45 553.26ZM125.399 555.454C125.951 555.47 126.412 555.035 126.428 554.483C126.443 553.931 126.009 553.471 125.457 553.455L125.399 555.454ZM131.341 553.604C130.789 553.592 130.331 554.03 130.319 554.582C130.307 555.134 130.744 555.591 131.296 555.604L131.341 553.604ZM137.336 555.722C137.888 555.731 138.343 555.291 138.352 554.739C138.362 554.187 137.922 553.731 137.37 553.722L137.336 555.722ZM143.247 553.809C142.695 553.802 142.241 554.244 142.234 554.796C142.227 555.348 142.669 555.802 143.221 555.809L143.247 553.809ZM149.245 555.875C149.797 555.88 150.249 555.437 150.254 554.884C150.259 554.332 149.815 553.88 149.263 553.875L149.245 555.875ZM155.165 553.922C154.613 553.918 154.162 554.363 154.159 554.915C154.155 555.467 154.6 555.918 155.152 555.922L155.165 553.922ZM161.135 555.955C161.688 555.957 162.137 555.511 162.14 554.959C162.142 554.407 161.697 553.957 161.144 553.955L161.135 555.955ZM167.106 553.976C166.554 553.975 166.105 554.421 166.104 554.973C166.102 555.526 166.548 555.975 167.101 555.976L167.106 553.976ZM173.027 555.989C173.579 555.99 174.027 555.543 174.028 554.991C174.029 554.438 173.582 553.99 173.03 553.989L173.027 555.989ZM179.087 553.996C178.534 553.996 178.086 554.443 178.086 554.995C178.085 555.548 178.533 555.996 179.085 555.996L179.087 553.996ZM184.941 555.999C185.493 555.999 185.941 555.552 185.941 554.999C185.942 554.447 185.494 553.999 184.942 553.999L184.941 555.999ZM190.943 554C190.391 554 189.943 554.448 189.943 555C189.943 555.552 190.391 556 190.943 556L190.943 554ZM24 420C24 421.025 24 422.042 24.0001 423.052L26.0001 423.052C26 422.042 26 421.025 26 420H24ZM24.002 429.017C24.0034 431.033 24.0057 433.017 24.0096 434.969L26.0096 434.965C26.0057 433.014 26.0034 431.031 26.002 429.016L24.002 429.017ZM24.0275 440.935C24.036 442.96 24.047 444.948 24.0615 446.902L26.0614 446.887C26.047 444.936 26.0359 442.949 26.0275 440.927L24.0275 440.935ZM24.118 452.841C24.1422 454.882 24.1713 456.882 24.2065 458.843L26.2061 458.807C26.1711 456.851 26.142 454.854 26.1178 452.817L24.118 452.841ZM24.334 464.729C24.3871 466.788 24.4485 468.8 24.5198 470.768L26.5185 470.695C26.4475 468.736 26.3862 466.73 26.3333 464.677L24.334 464.729ZM24.7738 476.729C24.8738 478.746 24.9867 480.712 25.1143 482.628L27.1098 482.495C26.9831 480.591 26.8708 478.637 26.7713 476.63L24.7738 476.729ZM25.5797 488.65C25.7622 490.701 25.9659 492.691 26.1931 494.62L28.1794 494.386C27.9546 492.478 27.7528 490.507 27.5719 488.473L25.5797 488.65ZM26.9978 500.55C27.3142 502.588 27.6643 504.552 28.0516 506.446L30.011 506.045C29.6307 504.186 29.2862 502.253 28.9741 500.244L26.9978 500.55ZM29.4304 512.295C29.9735 514.304 30.5714 516.224 31.23 518.058L33.1123 517.382C32.4736 515.603 31.8915 513.735 31.3612 511.773L29.4304 512.295ZM33.56 523.655C34.4597 525.527 35.445 527.295 36.5243 528.963L38.2035 527.876C37.1728 526.283 36.2282 524.59 35.3626 522.789L33.56 523.655ZM40.1857 533.827C41.521 535.355 42.9653 536.779 44.5269 538.105L45.8213 536.58C44.3349 535.318 42.9614 533.964 41.6917 532.511L40.1857 533.827ZM49.442 541.713C51.1084 542.771 52.8804 543.749 54.7643 544.654L55.6302 542.851C53.8123 541.978 52.1094 541.038 50.5138 540.025L49.442 541.713ZM60.3368 547.001C62.1616 547.674 64.0755 548.296 66.0828 548.871L66.6334 546.948C64.6695 546.385 62.8029 545.779 61.0286 545.125L60.3368 547.001ZM71.896 550.348C73.7734 550.771 75.7233 551.161 77.7483 551.523L78.0996 549.554C76.1013 549.197 74.1809 548.812 72.3351 548.397L71.896 550.348ZM83.6472 552.464C85.5713 552.737 87.557 552.99 89.6062 553.222L89.8319 551.235C87.7997 551.004 85.8327 550.754 83.9287 550.484L83.6472 552.464ZM95.5988 553.832C97.5108 554.006 99.4738 554.165 101.489 554.312L101.634 552.317C99.63 552.171 97.6789 552.013 95.7796 551.84L95.5988 553.832ZM107.48 554.703C109.421 554.816 111.408 554.919 113.441 555.013L113.534 553.015C111.508 552.922 109.529 552.819 107.596 552.706L107.48 554.703ZM119.377 555.258C121.344 555.33 123.351 555.395 125.399 555.454L125.457 553.455C123.413 553.396 121.411 553.332 119.45 553.26L119.377 555.258ZM131.296 555.604C133.273 555.648 135.286 555.687 137.336 555.722L137.37 553.722C135.323 553.687 133.314 553.648 131.341 553.604L131.296 555.604ZM143.221 555.809C145.196 555.834 147.204 555.856 149.245 555.875L149.263 553.875C147.224 553.856 145.219 553.834 143.247 553.809L143.221 555.809ZM155.152 555.922C157.117 555.935 159.111 555.946 161.135 555.955L161.144 553.955C159.121 553.946 157.129 553.935 155.165 553.922L155.152 555.922ZM167.101 555.976C169.049 555.982 171.024 555.986 173.027 555.989L173.03 553.989C171.028 553.986 169.054 553.982 167.106 553.976L167.101 555.976ZM179.085 555.996C181.013 555.998 182.965 555.999 184.941 555.999L184.942 553.999C182.966 553.999 181.014 553.998 179.087 553.996L179.085 555.996ZM190.943 556C191.956 556 192.975 556 194 556V554C192.975 554 191.956 554 190.943 554L190.943 556Z" fill="currentColor"/>
<path d="M257 554C256.448 554 256 554.448 256 555C256 555.552 256.448 556 257 556V554ZM413.707 257.293C413.317 256.902 412.683 256.902 412.293 257.293L405.929 263.657C405.538 264.047 405.538 264.681 405.929 265.071C406.319 265.462 406.953 265.462 407.343 265.071L413 259.414L418.657 265.071C419.047 265.462 419.681 265.462 420.071 265.071C420.462 264.681 420.462 264.047 420.071 263.657L413.707 257.293ZM257 556C295.955 556 325.33 556.005 347.394 551.338C369.552 546.651 384.466 537.224 394.385 518.34C404.244 499.57 409.123 471.532 411.561 429.761C414 387.96 414 332.237 414 258H412C412 332.263 412 387.915 409.564 429.645C407.127 471.405 402.256 499.055 392.615 517.41C383.034 535.651 368.698 544.787 346.981 549.381C325.17 553.995 296.045 554 257 554V556Z" fill="currentColor"/>
<rect x="21" y="21" width="108" height="72" rx="4" stroke="currentColor" stroke-width="2"/>
<path d="M31 31H65" stroke="currentColor" stroke-width="2" stroke-linecap="round"/>
<path d="M31 38H57" stroke="#808080" stroke-width="2" stroke-linecap="round"/>
<path d="M57 83V63" stroke="#4055BF" stroke-width="2" stroke-linecap="round" stroke-linejoin="round"/>
<path d="M93 83V69" stroke="#4055BF" stroke-width="2" stroke-linecap="round" stroke-linejoin="round"/>
<path opacity="0.75" d="M105 83V63" stroke="#4055BF" stroke-width="2" stroke-linecap="round" stroke-linejoin="round"/>
<path opacity="0.5" d="M117 83V55" stroke="#4055BF" stroke-width="2" stroke-linecap="round" stroke-linejoin="round"/>
<path d="M45 83V51" stroke="#4055BF" stroke-width="2" stroke-linecap="round" stroke-linejoin="round"/>
<path d="M81 83V59" stroke="#4055BF" stroke-width="2" stroke-linecap="round" stroke-linejoin="round"/>
<path d="M33 83V71" stroke="#4055BF" stroke-width="2" stroke-linecap="round" stroke-linejoin="round"/>
<path d="M69 83V71" stroke="#4055BF" stroke-width="2" stroke-linecap="round" stroke-linejoin="round"/>
<rect x="141" y="21" width="108" height="72" rx="4" stroke="currentColor" stroke-width="2"/>
<path d="M151 31H185" stroke="currentColor" stroke-width="2" stroke-linecap="round"/>
<path d="M151 38H177" stroke="#808080" stroke-width="2" stroke-linecap="round"/>
<path d="M153 83V59" stroke="#D1475E" stroke-width="2" stroke-linecap="round" stroke-linejoin="round"/>
<path d="M165 83V71" stroke="#D1475E" stroke-width="2" stroke-linecap="round" stroke-linejoin="round"/>
<path d="M177 83V63" stroke="#D1475E" stroke-width="2" stroke-linecap="round" stroke-linejoin="round"/>
<path d="M189 83V59" stroke="#D1475E" stroke-width="2" stroke-linecap="round" stroke-linejoin="round"/>
<path d="M201 83V71" stroke="#D1475E" stroke-width="2" stroke-linecap="round" stroke-linejoin="round"/>
<path d="M213 83V63" stroke="#D1475E" stroke-width="2" stroke-linecap="round" stroke-linejoin="round"/>
<path opacity="0.75" d="M225 83V71" stroke="#D1475E" stroke-width="2" stroke-linecap="round" stroke-linejoin="round"/>
<path opacity="0.5" d="M237 83V79" stroke="#D1475E" stroke-width="2" stroke-linecap="round" stroke-linejoin="round"/>
<path d="M22 111H80" stroke="currentColor" stroke-width="2" stroke-linecap="round"/>
<path d="M22 123H40" stroke="#4DAD3A" stroke-width="2" stroke-linecap="round"/>
<path d="M22 163H40" stroke="#4DAD3A" stroke-width="2" stroke-linecap="round"/>
<path d="M22 131H40" stroke="#808080" stroke-width="2" stroke-linecap="round"/>
<path d="M22 171H40" stroke="#808080" stroke-width="2" stroke-linecap="round"/>
<path d="M22 139H40" stroke="#D1475E" stroke-width="2" stroke-linecap="round"/>
<path d="M22 147H40" stroke="#E2B736" stroke-width="2" stroke-linecap="round"/>
<path d="M22 155H40" stroke="#808080" stroke-width="2" stroke-linecap="round"/>
<path d="M130 123H164" stroke="#808080" stroke-width="2" stroke-linecap="round"/>
<path d="M183 123H209" stroke="#808080" stroke-width="2" stroke-linecap="round"/>
<path d="M130 163H164" stroke="#808080" stroke-width="2" stroke-linecap="round"/>
<path d="M183 163H209" stroke="#808080" stroke-width="2" stroke-linecap="round"/>
<path d="M130 131H158" stroke="#808080" stroke-width="2" stroke-linecap="round"/>
<path d="M183 131H203" stroke="#808080" stroke-width="2" stroke-linecap="round"/>
<path d="M130 171H158" stroke="#808080" stroke-width="2" stroke-linecap="round"/>
<path d="M183 171H203" stroke="#808080" stroke-width="2" stroke-linecap="round"/>
<path d="M130 139H164" stroke="#808080" stroke-width="2" stroke-linecap="round"/>
<path d="M183 139H209" stroke="#808080" stroke-width="2" stroke-linecap="round"/>
<path d="M130 147H160" stroke="#808080" stroke-width="2" stroke-linecap="round"/>
<path d="M183 147H205" stroke="#808080" stroke-width="2" stroke-linecap="round"/>
<path d="M130 155H164" stroke="#808080" stroke-width="2" stroke-linecap="round"/>
<path d="M183 155H209" stroke="#808080" stroke-width="2" stroke-linecap="round"/>
<path d="M55 123H114" stroke="#808080" stroke-width="2" stroke-linecap="round"/>
<path d="M55 163H114" stroke="#808080" stroke-width="2" stroke-linecap="round"/>
<path d="M55 131H112" stroke="#808080" stroke-width="2" stroke-linecap="round"/>
<path d="M55 171H112" stroke="#808080" stroke-width="2" stroke-linecap="round"/>
<path d="M55 139H114" stroke="#808080" stroke-width="2" stroke-linecap="round"/>
<path d="M55 147H112" stroke="#808080" stroke-width="2" stroke-linecap="round"/>
<path d="M55 155H110" stroke="#808080" stroke-width="2" stroke-linecap="round"/>
<path d="M135 186V210" stroke="currentColor" stroke-width="2" stroke-linecap="round"/>
<path d="M87 210H183" stroke="currentColor" stroke-width="2" stroke-linecap="round"/>
<rect x="226" y="106" width="62" height="118" rx="8" stroke="currentColor" stroke-width="2"/>
<path d="M269 153C269.736 153 270.34 152.401 270.267 151.669C269.959 148.608 268.603 145.748 266.427 143.572C264.251 141.397 261.391 140.041 258.329 139.735C257.596 139.661 256.999 140.265 256.999 141.001V151.668C256.999 152.022 257.139 152.361 257.389 152.611C257.639 152.861 257.978 153.001 258.332 153.001L269 153Z" fill="#E8EBF7" stroke="#4055BF" stroke-width="2" stroke-linecap="round" stroke-linejoin="round"/>
<path d="M269.28 158.187C268.432 160.193 267.105 161.96 265.416 163.335C263.727 164.71 261.726 165.65 259.59 166.073C257.454 166.496 255.246 166.39 253.16 165.762C251.075 165.135 249.174 164.007 247.625 162.476C246.077 160.944 244.926 159.057 244.276 156.979C243.625 154.9 243.493 152.694 243.892 150.553C244.29 148.412 245.207 146.401 246.563 144.696C247.918 142.991 249.671 141.644 251.667 140.773" stroke="currentColor" stroke-width="2" stroke-linecap="round" stroke-linejoin="round"/>
<path d="M235 115H269" stroke="currentColor" stroke-width="2" stroke-linecap="round"/>
<path d="M235 122H261" stroke="#808080" stroke-width="2" stroke-linecap="round"/>
<path d="M235 185H245" stroke="#4DAD3A" stroke-width="2" stroke-linecap="round"/>
<path d="M235 192H245" stroke="#808080" stroke-width="2" stroke-linecap="round"/>
<path d="M235 199H245" stroke="#D1475E" stroke-width="2" stroke-linecap="round"/>
<path d="M235 206H245" stroke="#E2B736" stroke-width="2" stroke-linecap="round"/>
<path d="M235 213H245" stroke="#808080" stroke-width="2" stroke-linecap="round"/>
<path d="M252 185H279" stroke="#808080" stroke-width="2" stroke-linecap="round"/>
<path d="M252 192H277" stroke="#808080" stroke-width="2" stroke-linecap="round"/>
<path d="M252 199H279" stroke="#808080" stroke-width="2" stroke-linecap="round"/>
<path d="M252 206H277" stroke="#808080" stroke-width="2" stroke-linecap="round"/>
<path d="M252 213H275" stroke="#808080" stroke-width="2" stroke-linecap="round"/>
<path d="M412 179C412 179.552 412.448 180 413 180C413.552 180 414 179.552 414 179H412ZM272.293 85.2929C271.902 85.6834 271.902 86.3166 272.293 86.7071L278.657 93.0711C279.047 93.4616 279.681 93.4616 280.071 93.0711C280.462 92.6805 280.462 92.0474 280.071 91.6569L274.414 86L280.071 80.3431C280.462 79.9526 280.462 79.3195 280.071 78.9289C279.681 78.5384 279.047 78.5384 278.657 78.9289L272.293 85.2929ZM414 179C414 155.784 413.941 138.246 411.657 125.064C409.365 111.832 404.802 102.81 395.676 96.7902C386.632 90.8254 373.248 87.9103 353.589 86.4559C333.903 84.9993 307.734 85 273 85V87C307.766 87 333.847 87.0007 353.442 88.4504C373.065 89.9022 385.993 92.7996 394.574 98.4598C403.073 104.065 407.448 112.48 409.687 125.405C411.934 138.379 412 155.716 412 179H414Z" fill="currentColor"/>
<path d="M265 103V17C265 10.3726 259.627 5 253 5H17C10.3726 5 5 10.3726 5 17V174C5 180.627 10.3726 186 17 186H223" stroke="currentColor" stroke-width="2"/>
<path d="M165 356H261C261.552 356 262 355.552 262 355V342" stroke="currentColor" stroke-width="2" stroke-linecap="round"/>
<path d="M206 356V342" stroke="currentColor" stroke-width="2" stroke-linecap="round"/>
<path d="M234 356V342" stroke="currentColor" stroke-width="2" stroke-linecap="round"/>
<path d="M165 392H261C261.552 392 262 391.552 262 391V378" stroke="currentColor" stroke-width="2" stroke-linecap="round"/>
<path d="M206 392V378" stroke="currentColor" stroke-width="2" stroke-linecap="round"/>
<path d="M234 392V378" stroke="currentColor" stroke-width="2" stroke-linecap="round"/>
<path d="M165 428H261C261.552 428 262 427.552 262 427V414" stroke="currentColor" stroke-width="2" stroke-linecap="round"/>
<path d="M206 428V414" stroke="currentColor" stroke-width="2" stroke-linecap="round"/>
<path d="M234 428V414" stroke="currentColor" stroke-width="2" stroke-linecap="round"/>
<path d="M220 471V481" stroke="currentColor" stroke-width="2"/>
<path d="M220 529V539" stroke="currentColor" stroke-width="2"/>
<rect x="202" y="539" width="47" height="32" rx="2" stroke="currentColor" stroke-width="2"/>
<path d="M212.294 560L208.654 549.57H210.726L213.582 558.208H213.176L216.032 549.57H218.104L214.478 560H212.294ZM225.296 560.168C224.55 560.168 223.859 560.033 223.224 559.762C222.599 559.491 222.048 559.113 221.572 558.628C221.106 558.143 220.742 557.573 220.48 556.92C220.219 556.267 220.088 555.553 220.088 554.778C220.088 554.003 220.214 553.289 220.466 552.636C220.728 551.973 221.092 551.404 221.558 550.928C222.034 550.443 222.59 550.069 223.224 549.808C223.859 549.537 224.55 549.402 225.296 549.402C226.043 549.402 226.71 549.528 227.298 549.78C227.896 550.032 228.4 550.368 228.81 550.788C229.221 551.199 229.515 551.651 229.692 552.146L227.984 552.944C227.788 552.421 227.457 551.992 226.99 551.656C226.524 551.311 225.959 551.138 225.296 551.138C224.643 551.138 224.064 551.292 223.56 551.6C223.066 551.908 222.678 552.333 222.398 552.874C222.128 553.415 221.992 554.05 221.992 554.778C221.992 555.506 222.128 556.145 222.398 556.696C222.678 557.237 223.066 557.662 223.56 557.97C224.064 558.278 224.643 558.432 225.296 558.432C225.959 558.432 226.524 558.264 226.99 557.928C227.457 557.583 227.788 557.149 227.984 556.626L229.692 557.424C229.515 557.919 229.221 558.376 228.81 558.796C228.4 559.207 227.896 559.538 227.298 559.79C226.71 560.042 226.043 560.168 225.296 560.168ZM232.638 560V549.57H239.568V551.25H234.542V553.924H239.288V555.604H234.542V558.32H239.568V560H232.638Z" fill="currentColor"/>
<rect x="202" y="481" width="64" height="48" rx="2" stroke="currentColor" stroke-width="2"/>
<path d="M209.008 522V511.57H213.404C214.095 511.57 214.683 511.691 215.168 511.934C215.663 512.167 216.041 512.503 216.302 512.942C216.573 513.371 216.708 513.894 216.708 514.51C216.708 514.986 216.577 515.434 216.316 515.854C216.064 516.265 215.658 516.605 215.098 516.876V515.994C215.611 516.19 216.017 516.433 216.316 516.722C216.615 517.011 216.825 517.333 216.946 517.688C217.067 518.043 217.128 518.416 217.128 518.808C217.128 519.807 216.797 520.591 216.134 521.16C215.481 521.72 214.571 522 213.404 522H209.008ZM210.912 520.32H213.6C214.095 520.32 214.487 520.185 214.776 519.914C215.075 519.634 215.224 519.265 215.224 518.808C215.224 518.351 215.075 517.982 214.776 517.702C214.487 517.422 214.095 517.282 213.6 517.282H210.912V520.32ZM210.912 515.616H213.502C213.894 515.616 214.207 515.504 214.44 515.28C214.673 515.047 214.79 514.748 214.79 514.384C214.79 514.02 214.673 513.731 214.44 513.516C214.207 513.301 213.894 513.194 213.502 513.194H210.912V515.616ZM220.088 522V511.57H221.908L225.814 516.876H224.946L228.768 511.57H230.588V522H228.67V513.74L229.412 513.922L225.45 519.2H225.226L221.362 513.922L221.992 513.74V522H220.088ZM237.708 522.168C237.045 522.168 236.429 522.047 235.86 521.804C235.3 521.561 234.814 521.225 234.404 520.796C234.002 520.357 233.708 519.849 233.522 519.27L235.104 518.584C235.356 519.181 235.72 519.653 236.196 519.998C236.672 520.334 237.208 520.502 237.806 520.502C238.142 520.502 238.431 520.451 238.674 520.348C238.926 520.236 239.117 520.087 239.248 519.9C239.388 519.713 239.458 519.489 239.458 519.228C239.458 518.92 239.364 518.668 239.178 518.472C239 518.267 238.73 518.108 238.366 517.996L236.364 517.352C235.552 517.1 234.94 516.722 234.53 516.218C234.119 515.714 233.914 515.121 233.914 514.44C233.914 513.843 234.058 513.315 234.348 512.858C234.646 512.401 235.057 512.046 235.58 511.794C236.112 511.533 236.718 511.402 237.4 511.402C238.025 511.402 238.599 511.514 239.122 511.738C239.644 511.953 240.092 512.256 240.466 512.648C240.848 513.031 241.133 513.483 241.32 514.006L239.752 514.706C239.546 514.183 239.238 513.782 238.828 513.502C238.417 513.213 237.941 513.068 237.4 513.068C237.082 513.068 236.802 513.124 236.56 513.236C236.317 513.339 236.126 513.488 235.986 513.684C235.855 513.871 235.79 514.095 235.79 514.356C235.79 514.645 235.883 514.902 236.07 515.126C236.256 515.341 236.541 515.509 236.924 515.63L238.842 516.232C239.672 516.503 240.293 516.876 240.704 517.352C241.124 517.828 241.334 518.416 241.334 519.116C241.334 519.713 241.18 520.241 240.872 520.698C240.564 521.155 240.139 521.515 239.598 521.776C239.056 522.037 238.426 522.168 237.708 522.168Z" fill="currentColor"/>
<path d="M210 492V489" stroke="currentColor" stroke-width="2" stroke-linecap="round" stroke-linejoin="round"/>
<path d="M216 492V489" stroke="currentColor" stroke-width="2" stroke-linecap="round" stroke-linejoin="round"/>
<path d="M222 492V489" stroke="currentColor" stroke-width="2" stroke-linecap="round" stroke-linejoin="round"/>
<path d="M228 492V489" stroke="currentColor" stroke-width="2" stroke-linecap="round" stroke-linejoin="round"/>
<path d="M234 492V489" stroke="currentColor" stroke-width="2" stroke-linecap="round" stroke-linejoin="round"/>
<path d="M240 492V489" stroke="currentColor" stroke-width="2" stroke-linecap="round" stroke-linejoin="round"/>
<path d="M246 492V489" stroke="currentColor" stroke-width="2" stroke-linecap="round" stroke-linejoin="round"/>
<path d="M378.389 210.325L379.375 210.491L379.258 211.183L378.568 211.309L378.389 210.325ZM429.416 199.642L429.887 200.524L429.082 200.954L428.58 200.191L429.416 199.642ZM449.697 209.091L449.379 210.038L448.837 209.856L448.719 209.297L449.697 209.091ZM443 249C454.046 249 463 240.046 463 229H465C465 241.15 455.15 251 443 251V249ZM382 249H443V251H382V249ZM363 230C363 240.493 371.507 249 382 249V251C370.402 251 361 241.598 361 230H363ZM378.568 211.309C369.713 212.924 363 220.679 363 230H361C361 219.696 368.421 211.127 378.209 209.341L378.568 211.309ZM406 188C392.625 188 381.52 197.726 379.375 210.491L377.402 210.159C379.707 196.447 391.632 186 406 186V188ZM428.58 200.191C423.753 192.846 415.442 188 406 188V186C416.144 186 425.07 191.209 430.252 199.093L428.58 200.191ZM436 199C433.788 199 431.708 199.552 429.887 200.524L428.945 198.76C431.049 197.636 433.452 197 436 197V199ZM448.719 209.297C447.475 203.415 442.252 199 436 199V197C443.217 197 449.241 202.095 450.676 208.884L448.719 209.297ZM463 229C463 220.186 457.298 212.701 449.379 210.038L450.016 208.143C458.725 211.071 465 219.301 465 229H463Z" fill="currentColor"/>
<path d="M394.607 233L399.847 218.1H402.767L408.007 233H405.487L404.347 229.66H398.287L397.127 233H394.607ZM398.967 227.56H403.627L400.987 219.76H401.647L398.967 227.56ZM411.774 233V218.1H417.194C418.194 218.1 419.074 218.287 419.834 218.66C420.608 219.02 421.208 219.553 421.634 220.26C422.061 220.953 422.274 221.787 422.274 222.76C422.274 223.72 422.054 224.547 421.614 225.24C421.188 225.933 420.594 226.467 419.834 226.84C419.074 227.213 418.194 227.4 417.194 227.4H414.134V233H411.774ZM414.134 225.3H417.254C417.788 225.3 418.254 225.193 418.654 224.98C419.054 224.767 419.368 224.473 419.594 224.1C419.821 223.713 419.934 223.26 419.934 222.74C419.934 222.22 419.821 221.773 419.594 221.4C419.368 221.013 419.054 220.72 418.654 220.52C418.254 220.307 417.788 220.2 417.254 220.2H414.134V225.3ZM426.704 233V218.1H429.064V233H426.704Z" fill="currentColor"/>
<path d="M329.018 421.161L328.089 420.792C327.937 421.173 328.034 421.608 328.333 421.889L329.018 421.161ZM302.982 421.161L303.667 421.889C303.966 421.608 304.063 421.173 303.911 420.792L302.982 421.161ZM329 416C329 417.694 328.676 419.31 328.089 420.792L329.948 421.529C330.627 419.817 331 417.951 331 416H329ZM316 403C323.18 403 329 408.82 329 416H331C331 407.716 324.284 401 316 401V403ZM303 416C303 408.82 308.82 403 316 403V401C307.716 401 301 407.716 301 416H303ZM303.911 420.792C303.324 419.31 303 417.694 303 416H301C301 417.951 301.373 419.817 302.052 421.529L303.911 420.792ZM298 435C298 429.831 300.177 425.173 303.667 421.889L302.297 420.432C298.422 424.079 296 429.257 296 435H298ZM316 453C306.059 453 298 444.941 298 435H296C296 446.046 304.954 455 316 455V453ZM334 435C334 444.941 325.941 453 316 453V455C327.046 455 336 446.046 336 435H334ZM328.333 421.889C331.823 425.173 334 429.831 334 435H336C336 429.257 333.578 424.079 329.703 420.432L328.333 421.889Z" fill="#808080"/>
<path d="M316 470V430" stroke="#808080" stroke-width="2" stroke-linecap="round"/>
<path d="M316 440.5L310 434.5" stroke="#808080" stroke-width="2" stroke-linecap="round"/>
<path d="M316 447L325 438" stroke="#808080" stroke-width="2" stroke-linecap="round"/>
<path d="M122 471H346" stroke="#808080" stroke-width="2" stroke-linecap="round"/>
<path d="M181 308C181 307.448 181.448 307 182 307H286C286.552 307 287 307.448 287 308V312C287 312.552 286.552 313 286 313H182C181.448 313 181 312.552 181 312V308Z" stroke="#808080" stroke-width="2"/>
<path d="M203 349H200C199.448 349 199 348.552 199 348V328C199 327.448 199.448 327 200 327H212C212.552 327 213 327.448 213 328V348C213 348.552 212.552 349 212 349H209" stroke="#808080" stroke-width="2"/>
<path d="M203 385H200C199.448 385 199 384.552 199 384V364C199 363.448 199.448 363 200 363H212C212.552 363 213 363.448 213 364V384C213 384.552 212.552 385 212 385H209" stroke="#808080" stroke-width="2"/>
<path d="M203 421H200C199.448 421 199 420.552 199 420V400C199 399.448 199.448 399 200 399H212C212.552 399 213 399.448 213 400V420C213 420.552 212.552 421 212 421H209" stroke="#808080" stroke-width="2"/>
<path d="M199 470V441C199 440.448 199.448 440 200 440H240C240.552 440 241 440.448 241 441V470" stroke="#808080" stroke-width="2"/>
<path d="M231 349H228C227.448 349 227 348.552 227 348V328C227 327.448 227.448 327 228 327H240C240.552 327 241 327.448 241 328V348C241 348.552 240.552 349 240 349H237" stroke="#808080" stroke-width="2"/>
<path d="M231 385H228C227.448 385 227 384.552 227 384V364C227 363.448 227.448 363 228 363H240C240.552 363 241 363.448 241 364V384C241 384.552 240.552 385 240 385H237" stroke="#808080" stroke-width="2"/>
<path d="M231 421H228C227.448 421 227 420.552 227 420V400C227 399.448 227.448 399 228 399H240C240.552 399 241 399.448 241 400V420C241 420.552 240.552 421 240 421H237" stroke="#808080" stroke-width="2"/>
<path d="M259 349H256C255.448 349 255 348.552 255 348V328C255 327.448 255.448 327 256 327H268C268.552 327 269 327.448 269 328V348C269 348.552 268.552 349 268 349H265" stroke="#808080" stroke-width="2"/>
<path d="M259 385H256C255.448 385 255 384.552 255 384V364C255 363.448 255.448 363 256 363H268C268.552 363 269 363.448 269 364V384C269 384.552 268.552 385 268 385H265" stroke="#808080" stroke-width="2"/>
<path d="M259 421H256C255.448 421 255 420.552 255 420V400C255 399.448 255.448 399 256 399H268C268.552 399 269 399.448 269 400V420C269 420.552 268.552 421 268 421H265" stroke="#808080" stroke-width="2"/>
<path d="M283 313V471" stroke="#808080" stroke-width="2"/>
<path d="M185 313V353" stroke="#808080" stroke-width="2"/>
<path d="M185 359V389" stroke="#808080" stroke-width="2"/>
<path d="M185 395V425" stroke="#808080" stroke-width="2"/>
<path d="M185 431V471" stroke="#808080" stroke-width="2"/>
<rect x="255" y="440" width="14" height="14" rx="1" stroke="#808080" stroke-width="2"/>
<path d="M133 456H171" stroke="#808080" stroke-width="2" stroke-linecap="round"/>
<path d="M133 462H171" stroke="#808080" stroke-width="2" stroke-linecap="round"/>
<path d="M140 462V470" stroke="#808080" stroke-width="2"/>
<path d="M164 462V470" stroke="#808080" stroke-width="2"/>
<ellipse cx="359.5" cy="194" rx="21.5" ry="7" stroke="currentColor" stroke-width="2" stroke-linecap="round" stroke-linejoin="round"/>
<path d="M338 210C338 213.866 347.626 217 359.5 217C360.346 217 361.18 216.984 362 216.953" stroke="currentColor" stroke-width="2" stroke-linecap="round" stroke-linejoin="round"/>
<path d="M358 233C346.954 233 338 229.866 338 226V194" stroke="currentColor" stroke-width="2" stroke-linecap="round" stroke-linejoin="round"/>
</svg>
