<svg width="392" height="81" viewBox="0 0 392 81" fill="none" xmlns="http://www.w3.org/2000/svg">
<path d="M114.275 54.9205V56.2205L113.975 57.2205C113.975 57.4205 113.775 57.6205 113.675 57.7205L113.175 57.8205H97.175C96.675 57.8205 96.175 57.7205 95.775 57.3205C95.275 57.0205 95.075 56.4205 95.075 55.6205V24.0205L95.275 23.5205C95.375 23.3205 95.575 23.2205 95.875 23.1205L96.875 22.9205C98.4098 22.7607 99.9598 22.8281 101.475 23.1205C101.775 23.2205 101.975 23.3205 102.075 23.5205L102.275 24.0205V52.0205H113.275L113.675 52.1205L113.975 52.6205L114.175 53.6205L114.275 54.9205ZM146.975 55.3205C147.175 55.8205 147.375 56.3205 147.375 56.7205C147.375 57.1205 147.375 57.4205 147.175 57.6205C146.975 57.8205 146.675 57.9205 146.175 57.9205C144.38 58.1139 142.57 58.1139 140.775 57.9205L140.175 57.5205L139.875 56.9205L137.575 49.9205H124.575L122.275 56.7205C122.275 57.0205 122.075 57.2205 121.975 57.3205C121.875 57.5205 121.675 57.7205 121.375 57.7205L120.375 58.0205C119.077 58.1185 117.773 58.1185 116.475 58.0205L115.475 57.5205C115.375 57.3205 115.275 57.0205 115.375 56.7205C115.375 56.3205 115.575 55.7205 115.775 55.2205L126.475 24.2205L126.875 23.5205C126.975 23.3205 127.275 23.2205 127.575 23.1205L128.875 22.9205C130.944 22.8525 133.015 22.9194 135.075 23.1205C135.475 23.1205 135.675 23.3205 135.875 23.5205L136.275 24.3205L146.975 55.3205ZM129.075 16.5205C129.075 17.8205 128.875 18.7205 128.375 19.2205C127.875 19.7205 126.975 19.9205 125.575 19.9205C124.175 19.9205 123.275 19.7205 122.775 19.2205C122.275 18.7205 122.075 17.8205 122.075 16.6205C122.075 15.4205 122.275 14.5205 122.775 14.0205C123.275 13.5205 124.175 13.2205 125.575 13.2205C126.975 13.2205 127.975 13.5205 128.375 13.9205C128.875 14.4205 129.075 15.3205 129.075 16.5205ZM130.975 29.6205L125.975 44.5205H135.975L130.975 29.6205ZM140.875 16.6205C140.875 17.8205 140.675 18.6205 140.175 19.2205C139.675 19.7205 138.675 19.9205 137.275 19.9205C135.875 19.9205 134.975 19.7205 134.475 19.2205C134.075 18.7205 133.775 17.8205 133.775 16.6205C133.775 15.4205 134.075 14.5205 134.575 14.0205C135.075 13.5205 135.975 13.2205 137.375 13.2205C138.775 13.2205 139.675 13.5205 140.175 13.9205C140.675 14.4205 140.875 15.3205 140.875 16.5205V16.6205ZM179.075 56.9205C179.075 57.1205 179.075 57.2205 178.875 57.4205L178.375 57.7205L177.275 57.9205C175.774 58.0971 174.254 58.0296 172.775 57.7205C172.475 57.7205 172.275 57.5205 172.175 57.4205C172.11 57.3545 172.059 57.2763 172.025 57.1905C171.991 57.1047 171.974 57.0129 171.975 56.9205V42.8205H158.975V56.8205C158.975 57.1205 158.975 57.2205 158.775 57.4205L158.275 57.7205L157.175 57.9205C155.674 58.092 154.155 58.0245 152.675 57.7205C152.375 57.7205 152.175 57.5205 152.075 57.4205C151.953 57.2819 151.882 57.1052 151.875 56.9205V23.9205C151.875 23.8205 151.875 23.6205 152.075 23.5205C152.175 23.3205 152.375 23.2205 152.675 23.1205L153.675 22.9205C155.21 22.7592 156.76 22.8266 158.275 23.1205L158.775 23.5205L158.975 24.0205V36.8205H171.975V24.0205C171.975 23.8205 171.975 23.6205 172.175 23.5205C172.275 23.3205 172.475 23.2205 172.775 23.1205L173.775 22.9205C175.31 22.7636 176.859 22.831 178.375 23.1205L178.875 23.5205C179.075 23.6205 179.075 23.8205 179.075 24.0205V56.9205ZM193.775 56.9205C193.775 57.1205 193.775 57.2205 193.575 57.4205L193.075 57.7205L191.975 57.9205C190.474 58.092 188.955 58.0245 187.475 57.7205C187.175 57.7205 186.975 57.5205 186.875 57.4205C186.753 57.2819 186.682 57.1052 186.675 56.9205V23.9205C186.675 23.8205 186.675 23.6205 186.875 23.5205C186.975 23.3205 187.175 23.2205 187.475 23.1205L188.475 22.9205C190.01 22.7547 191.561 22.8221 193.075 23.1205L193.575 23.5205C193.775 23.6205 193.775 23.8205 193.775 24.0205V56.9205ZM224.675 25.9205L224.575 27.2205L224.375 28.2205L223.975 28.6205L223.575 28.8205H214.875V56.8205C214.875 57.1205 214.875 57.2205 214.675 57.4205L214.075 57.7205C212.227 58.0976 210.323 58.0976 208.475 57.7205C208.175 57.7205 208.075 57.5205 207.875 57.4205C207.788 57.2692 207.753 57.0936 207.775 56.9205V28.8205H198.975C198.875 28.8205 198.675 28.8205 198.575 28.6205C198.475 28.6205 198.275 28.3205 198.275 28.1205L198.075 27.2205C197.941 26.0177 198.009 24.8011 198.275 23.6205C198.275 23.4205 198.475 23.2205 198.575 23.1205L198.975 23.0205H223.675L224.075 23.1205L224.475 23.6205L224.675 24.6205V25.9205ZM252.975 55.3205L253.375 56.7205C253.375 57.1205 253.375 57.4205 253.175 57.6205C252.975 57.8205 252.575 57.9205 252.175 57.9205C250.348 58.1286 248.502 58.1286 246.675 57.9205L246.175 57.5205L245.875 56.9205L243.475 49.9205H230.475L228.175 56.7205L227.975 57.3205C227.775 57.5205 227.675 57.7205 227.375 57.7205C225.719 57.9484 224.044 58.0153 222.375 57.9205C221.975 57.9205 221.675 57.7205 221.475 57.5205C221.275 57.3205 221.275 57.0205 221.275 56.7205C221.275 56.3205 221.475 55.7205 221.675 55.2205L232.475 24.2205C232.475 23.9205 232.675 23.7205 232.775 23.5205L233.475 23.1205L234.775 22.9205C236.844 22.8528 238.915 22.9196 240.975 23.1205C241.375 23.1205 241.675 23.3205 241.775 23.5205L242.175 24.3205L252.975 55.3205ZM236.975 29.6205L231.975 44.5205H241.875L236.875 29.6205H236.975ZM281.675 33.6205C281.675 35.6205 281.375 37.3205 280.775 38.8205C280.187 40.2822 279.262 41.5842 278.075 42.6205C276.975 43.6205 275.475 44.4205 273.775 44.9205C271.827 45.49 269.804 45.7598 267.775 45.7205H264.875V56.9205L264.775 57.4205L264.175 57.7205L263.075 57.9205C261.574 58.0971 260.054 58.0296 258.575 57.7205C258.275 57.7205 258.075 57.5205 257.975 57.4205C257.853 57.2819 257.782 57.1052 257.775 56.9205V25.5205C257.775 24.7205 258.075 24.0205 258.475 23.6205C258.875 23.2205 259.475 23.0205 260.175 23.0205H268.475C270.153 23.037 271.827 23.2043 273.475 23.5205C274.475 23.7205 275.575 24.1205 276.675 24.6205C277.726 25.1295 278.665 25.8426 279.438 26.7182C280.21 27.5937 280.801 28.6143 281.175 29.7205C281.475 30.9205 281.675 32.2205 281.675 33.6205ZM274.275 34.1205C274.275 32.9205 274.075 31.9205 273.675 31.1205C273.175 30.3205 272.675 29.7205 272.075 29.3205C271.375 28.9205 270.775 28.7205 270.075 28.6205L267.875 28.5205H264.875V40.3205H268.075C269.175 40.3205 270.075 40.1205 270.975 39.8205C271.689 39.5568 272.332 39.1304 272.853 38.5749C273.374 38.0194 273.758 37.3503 273.975 36.6205C274.175 35.8205 274.275 35.0205 274.275 34.1205ZM294.275 56.9205C294.275 57.1205 294.275 57.2205 294.075 57.4205L293.575 57.7205L292.475 57.9205C290.974 58.0937 289.455 58.0261 287.975 57.7205C287.675 57.7205 287.475 57.5205 287.375 57.4205C287.253 57.2819 287.182 57.1052 287.175 56.9205V23.9205C287.175 23.8205 287.175 23.6205 287.375 23.5205C287.475 23.3205 287.675 23.2205 287.975 23.1205L288.975 22.9205C290.51 22.7532 292.061 22.8206 293.575 23.1205L294.075 23.5205C294.275 23.6205 294.275 23.8205 294.275 24.0205V56.9205ZM333.275 40.0205C333.275 42.9205 332.875 45.5205 332.175 47.8205C331.475 50.0205 330.375 52.0205 328.975 53.6205C327.518 55.2225 325.701 56.4563 323.675 57.2205C319.044 58.957 313.953 59.0277 309.275 57.4205C307.306 56.7497 305.54 55.5906 304.141 54.0516C302.742 52.5127 301.756 50.644 301.275 48.6205C299.797 43.5255 299.797 38.1155 301.275 33.0205C302.075 30.8205 303.075 28.8205 304.575 27.3205C306 25.7032 307.78 24.437 309.775 23.6205C311.875 22.8205 314.275 22.4205 317.075 22.4205C319.775 22.4205 322.075 22.7205 324.075 23.4205C326.075 24.1205 327.775 25.2205 329.075 26.6205C330.527 28.2227 331.588 30.1395 332.175 32.2205C332.875 34.4205 333.175 37.0205 333.175 40.0205M325.775 40.4205C325.775 38.6205 325.675 36.9205 325.375 35.4205C325.075 33.9205 324.575 32.6205 323.875 31.5205C323.2 30.498 322.269 29.6705 321.175 29.1205C319.841 28.4505 318.367 28.1077 316.875 28.1205C315.075 28.1205 313.675 28.5205 312.475 29.1205C311.334 29.7764 310.372 30.7038 309.675 31.8205C308.942 32.9824 308.433 34.2713 308.175 35.6205C307.595 38.8614 307.595 42.1796 308.175 45.4205C308.39 46.7974 308.865 48.1209 309.575 49.3205C310.275 50.3205 311.175 51.2205 312.275 51.8205C313.475 52.3205 314.875 52.6205 316.675 52.6205C318.375 52.6205 319.875 52.3205 320.975 51.6205C322.146 51.013 323.144 50.1184 323.875 49.0205C324.575 47.9205 325.075 46.6205 325.375 45.1205C325.675 43.6205 325.775 42.1205 325.775 40.4205ZM358.375 54.9205C358.36 55.6959 358.26 56.4672 358.075 57.2205C358.075 57.4205 357.875 57.6205 357.775 57.7205L357.275 57.8205H341.275C340.675 57.8205 340.275 57.7205 339.775 57.3205C339.375 57.0205 339.175 56.4205 339.175 55.6205V24.0205C339.175 23.8205 339.175 23.6205 339.375 23.5205C339.475 23.3205 339.675 23.2205 339.975 23.1205L340.975 22.9205C342.51 22.7607 344.06 22.8281 345.575 23.1205C345.875 23.2205 346.075 23.3205 346.175 23.5205L346.275 24.0205V52.0205H357.275L357.775 52.1205L358.075 52.6205L358.275 53.6205V54.9205M391.075 55.3205C391.275 55.9205 391.475 56.3205 391.475 56.7205C391.475 57.1205 391.475 57.4205 391.275 57.6205C391.075 57.8205 390.775 57.9205 390.275 57.9205C388.481 58.1211 386.669 58.1211 384.875 57.9205C384.632 57.8664 384.418 57.7238 384.275 57.5205C384.142 57.3388 384.04 57.1359 383.975 56.9205L381.675 49.9205H368.575L366.375 56.7205C366.375 57.0205 366.175 57.2205 366.075 57.3205C365.975 57.5205 365.775 57.7205 365.475 57.7205C363.819 57.9477 362.144 58.0147 360.475 57.9205C360.175 57.9205 359.775 57.7205 359.675 57.5205C359.475 57.3205 359.375 57.0205 359.475 56.7205C359.475 56.3205 359.675 55.7205 359.875 55.2205L370.575 24.2205L370.975 23.5205C371.075 23.3205 371.375 23.2205 371.675 23.1205L372.975 22.9205C375.044 22.8525 377.115 22.9194 379.175 23.1205C379.475 23.1205 379.775 23.3205 379.875 23.5205L380.275 24.3205L391.075 55.3205ZM375.075 29.6205L370.075 44.5205H380.075L375.075 29.6205ZM5.175 53.8205C-1.725 46.9205 -1.725 35.8205 5.175 28.9205L28.975 5.12047C31.5504 2.55932 34.8551 0.857677 38.4358 0.248952C42.0166 -0.359772 45.6979 0.154235 48.975 1.72047V1.82047L25.575 25.2205C24.7301 26.3518 24.319 27.7486 24.4163 29.1572C24.5136 30.5659 25.1128 31.8929 26.1051 32.8973C27.0975 33.9018 28.4172 34.5171 29.8245 34.6314C31.2318 34.7457 32.6335 34.3516 33.775 33.5205L37.975 29.4205C40.275 27.0205 42.675 27.0205 44.675 29.0205L53.675 37.9205C55.975 40.3205 56.275 42.3205 53.675 45.0205L45.175 53.5205C42.775 55.8205 40.575 56.0205 38.075 53.5205L21.675 37.2205C20.5422 36.2991 19.108 35.8306 17.6497 35.9054C16.1915 35.9803 14.8128 36.5932 13.7803 37.6257C12.7478 38.6582 12.1348 40.0369 12.06 41.4952C11.9851 42.9535 12.4537 44.3877 13.375 45.5205L34.175 66.3205C38.175 70.3205 44.775 70.3205 48.875 66.3205L66.275 48.8205C70.275 44.8205 70.275 38.2205 66.275 34.1205L52.975 20.7205C50.875 18.7205 50.975 16.3205 53.175 14.1205L57.475 9.92047L57.975 9.22047L74.675 25.9205C76.7249 27.9478 78.3523 30.3617 79.463 33.0223C80.5737 35.6829 81.1456 38.5374 81.1456 41.4205C81.1456 44.3036 80.5737 47.1581 79.463 49.8187C78.3523 52.4793 76.7249 54.8931 74.675 56.9205L56.875 74.5205C52.7709 78.6058 47.2158 80.8993 41.425 80.8993C35.6342 80.8993 30.0791 78.6058 25.975 74.5205L5.175 53.8205Z" fill="currentColor"/>
</svg>
