<svg width="261" height="200" viewBox="0 0 261 200" fill="none" xmlns="http://www.w3.org/2000/svg">
<path d="M21.9788 44.9189H33.1893V78.713H46.4247V0H214.177V78.713H227.377V44.946H238.731V125.715H227.543C227.512 125.165 227.453 124.615 227.453 124.038C227.453 113.666 227.426 103.272 227.485 92.9224C227.485 91.6507 227.196 91.2133 225.834 91.2133C162.179 91.2463 98.5227 91.2569 34.8669 91.2448H33.3021V125.706H21.9788V44.9189ZM59.0512 12.4507V78.6859H201.673V12.4507H59.0512Z" fill="currentColor"/>
<path d="M155.315 145.498C152.361 145.498 149.453 145.557 146.513 145.44C146.134 145.44 145.669 144.745 145.408 144.281C141.04 136.723 136.681 129.164 132.33 121.603C132.101 121.159 131.763 120.78 131.347 120.502V145.408H122.098V101.333C125.021 101.333 127.861 101.274 130.698 101.391C131.149 101.418 131.681 102.027 131.974 102.492C136.375 110.076 140.735 117.682 145.052 125.309C145.295 125.786 145.642 126.201 146.066 126.527V101.463H155.315V145.498ZM174.399 127.28V136.637H192.095V145.408H164.754V101.391H192.067V110.031H174.458V118.419H190.692V127.253C185.317 127.28 179.932 127.28 174.399 127.28ZM68.5798 101.333H78.1625V136.664H95.6999V145.44H68.5798V101.333ZM12.306 64.8734V105.269H0.549805V64.8734H12.306ZM248.45 65.2206H260.152V105.328H248.45V65.2206ZM102.838 101.391H112.25V145.323H102.838V101.391ZM162.814 22.3851H192.095V31.6836H173.213V40.7477H190.706V50.0147H173.213V60.2377H192.203V69.5903C191.752 69.6219 191.364 69.6805 190.958 69.6805C182.065 69.6805 173.204 69.649 164.316 69.7076C163.099 69.7076 162.778 69.3603 162.778 68.1744C162.808 53.4013 162.819 38.6403 162.81 23.8913C162.783 23.3895 162.784 22.8866 162.814 22.3851ZM155.983 22.3851V31.7423H136.547V40.5854H154.359V49.9966H136.547V69.5452H126.238V22.358C136.114 22.3851 145.958 22.3851 155.983 22.3851ZM79.0148 60.3234H97.8058V69.446H68.9451V22.4753H79.0148V60.3234ZM115.726 69.6219H105.621V22.358H115.731L115.726 69.6219ZM156.055 173.489H152.65V178.179H155.983C156.106 178.18 156.229 178.157 156.344 178.111C156.459 178.065 156.564 177.996 156.651 177.908C156.739 177.821 156.809 177.717 156.856 177.602C156.903 177.487 156.926 177.365 156.925 177.241V174.418C156.932 174.179 156.845 173.948 156.682 173.774C156.519 173.599 156.293 173.497 156.055 173.489Z" fill="currentColor"/>
<path d="M201.709 100.868V154.562H58.907V100.868H46.5465V167.189H58.9701V200H202.327V167.103H214.141V100.868H201.709ZM84.4847 171.216C82.9425 176.285 81.4032 181.353 79.867 186.422C79.8607 186.492 79.8397 186.561 79.8054 186.623C79.771 186.684 79.724 186.738 79.6675 186.781C79.6109 186.823 79.5461 186.854 79.4771 186.869C79.4082 186.885 79.3367 186.886 79.2673 186.873C78.1534 186.846 77.0396 186.873 75.9077 186.873L70.8075 170.093H74.7894C75.7769 173.399 76.769 176.727 77.7611 180.055H77.8513L80.8501 170.075H84.8229C84.7057 170.458 84.5975 170.851 84.4847 171.225V171.216ZM98.4641 173.444H91.3437V176.727H97.5036V180.163H91.3301V183.414H98.4596V186.828H87.5016V170.084H98.4822L98.4641 173.444ZM115.149 186.85H112.642C112.191 186.85 111.699 186.963 111.366 186.769C111.032 186.575 110.915 186.084 110.698 185.718L106.103 177.719L105.846 177.29V186.823H102.022V170.062C102.884 170.107 103.748 170.107 104.611 170.062C105.512 169.962 105.999 170.296 106.441 171.103C107.925 173.84 109.512 176.515 111.059 179.22C111.122 179.333 111.19 179.446 111.316 179.671V170.093H115.149V186.85ZM130.166 173.457H126.148V186.823H122.301V173.48H118.243V170.084H130.175L130.166 173.457ZM145.227 170.503V183.162C145.227 185.389 143.766 186.85 141.539 186.85H136.871C136.4 186.874 135.929 186.8 135.488 186.634C135.046 186.468 134.644 186.212 134.305 185.883C133.967 185.555 133.7 185.16 133.52 184.723C133.341 184.287 133.254 183.818 133.264 183.346C133.237 179.008 133.264 174.67 133.264 170.332C133.264 170.255 133.264 170.174 133.286 170.075H137.101V182.183C137.101 183.139 137.403 183.432 138.369 183.432H140.344C140.493 183.453 140.645 183.438 140.788 183.39C140.931 183.341 141.061 183.26 141.167 183.153C141.273 183.046 141.353 182.916 141.401 182.772C141.448 182.629 141.461 182.477 141.439 182.327V170.08H145.273L145.227 170.503ZM160.086 186.85H157.101C156.992 186.861 156.882 186.837 156.788 186.782C156.693 186.727 156.618 186.644 156.573 186.544C155.671 185.051 154.769 183.572 153.908 182.07C153.687 181.687 153.457 181.489 153.006 181.565C152.873 181.577 152.738 181.577 152.605 181.565V186.828H148.776V170.062H157.051C159.252 170.062 160.727 171.532 160.731 173.723V177.904C160.776 178.692 160.553 179.473 160.096 180.118C159.64 180.762 158.978 181.233 158.219 181.453C158.174 181.453 158.129 181.502 158.052 181.543L161.241 186.859L160.086 186.85ZM175.261 186.828H164.321V170.089H175.279V173.475H168.145V176.731H174.318V180.163H168.149V183.446H175.288L175.261 186.828ZM190.809 183.536C190.784 184.401 190.431 185.225 189.821 185.84C189.212 186.455 188.392 186.816 187.526 186.85C185.723 186.892 183.919 186.892 182.115 186.85C181.271 186.814 180.471 186.465 179.869 185.872C179.267 185.279 178.908 184.483 178.859 183.64C178.819 182.9 178.859 182.156 178.859 181.385H182.683V182.404C182.668 182.544 182.684 182.685 182.73 182.817C182.776 182.95 182.851 183.071 182.949 183.171C183.048 183.271 183.167 183.348 183.299 183.396C183.431 183.445 183.572 183.463 183.711 183.45H185.966C186.102 183.458 186.239 183.437 186.366 183.388C186.494 183.339 186.609 183.263 186.705 183.166C186.801 183.068 186.874 182.952 186.921 182.823C186.968 182.695 186.987 182.558 186.976 182.422V182.102C186.976 181.101 186.8 180.866 185.831 180.596C184.334 180.185 182.837 179.789 181.348 179.369C181.015 179.278 180.692 179.154 180.383 178.999C179.937 178.801 179.556 178.479 179.287 178.072C179.018 177.664 178.871 177.188 178.864 176.7C178.814 175.59 178.805 174.472 178.864 173.358C178.897 172.493 179.257 171.673 179.873 171.064C180.489 170.455 181.313 170.103 182.178 170.08C183.955 170.044 185.736 170.039 187.513 170.08C188.384 170.11 189.211 170.472 189.826 171.091C190.44 171.71 190.795 172.54 190.818 173.412V175.563H186.99V174.535C187.003 174.395 186.986 174.254 186.939 174.122C186.893 173.989 186.817 173.869 186.719 173.768C186.62 173.668 186.501 173.591 186.369 173.542C186.238 173.493 186.097 173.473 185.957 173.484H183.702C183.569 173.475 183.435 173.494 183.31 173.541C183.185 173.587 183.071 173.66 182.976 173.754C182.881 173.847 182.807 173.96 182.759 174.085C182.71 174.21 182.689 174.343 182.697 174.476V175.072C182.674 175.21 182.68 175.351 182.714 175.487C182.748 175.623 182.808 175.751 182.893 175.863C182.977 175.975 183.083 176.069 183.204 176.139C183.325 176.209 183.46 176.254 183.599 176.271C185.168 176.7 186.755 177.119 188.311 177.556C188.606 177.636 188.893 177.743 189.168 177.876C189.668 178.088 190.092 178.445 190.387 178.901C190.681 179.357 190.831 179.891 190.818 180.433C190.85 181.462 190.85 182.499 190.809 183.536Z" fill="currentColor"/>
</svg>
