<svg width="409" height="100" viewBox="0 0 409 100" fill="none" xmlns="http://www.w3.org/2000/svg">
<path d="M31.7649 47.0585V25.882H44.1152C52.3514 25.882 56.4694 29.4114 56.4694 36.4703C56.4694 43.5291 52.3514 47.0585 44.1152 47.0585H31.7649ZM4.30178e-06 98.238H31.7649V69.4207H47.0585C71.7632 69.4207 85.8959 56.4776 86.4683 37.0712C87.057 15.306 72.9405 2.36283 48.2318 2.36283H-0.00798035L4.30178e-06 98.238Z" fill="currentColor"/>
<path d="M136.466 64.1142V72.9405C136.466 78.2306 132.35 82.3432 123.528 82.3432H121.761C116.467 81.7545 114.701 79.4039 114.701 75.8759C115.29 72.9365 116.467 71.7591 121.173 69.4043C121.492 69.4436 121.817 69.4111 122.122 69.3092C122.428 69.2074 122.707 69.0389 122.939 68.8157H123.528L126.467 67.6382L129.999 67.0496L132.35 65.8721C134.116 65.2834 134.704 64.6947 136.466 64.106M135.878 48.2235C135.904 49.0479 135.7 49.8633 135.289 50.5785C134.086 51.5022 132.671 52.1095 131.172 52.3446L125.289 53.5219L122.939 54.1105L118.233 54.6993L114.117 55.288L108.802 56.4654C94.6855 59.4089 88.2139 65.868 86.4478 74.1138C84.0931 90.5808 95.8508 102.347 117.036 99.4071C119.463 99.1686 121.842 98.5735 124.095 97.641C131.74 94.6976 134.095 92.3265 135.272 88.8148C135.266 90.4798 135.697 92.1175 136.523 93.5634C137.349 95.0092 138.54 96.2124 139.978 97.0524C143.506 99.9918 148.8 100.581 162.921 98.8185C164.687 98.8185 166.449 98.2299 168.235 98.2299V79.4243H167.058C164.118 79.4243 164.118 79.4244 163.53 78.2471V48.2482C163.53 32.3658 153.53 24.1281 128.825 24.1281C105.294 24.1281 95.3029 31.1884 91.7666 44.716C91.7666 46.4821 91.1777 48.2441 91.1777 49.4215H120.003V48.244C120.164 46.3236 121.039 44.5335 122.455 43.2264C123.871 41.9193 125.725 41.1904 127.652 41.1838H131.18C132.408 41.4872 133.515 42.1555 134.355 43.1006C135.195 44.0458 135.729 45.2235 135.886 46.4781L135.878 48.2235Z" fill="currentColor"/>
<path d="M171.17 43.5304H179.404V77.6461C179.404 91.0511 184.485 98.7325 197.22 99.9999H205.523C208.403 99.7529 211.268 99.36 214.108 98.8226C216.463 98.2339 218.229 98.2338 220.579 97.6451V75.88C219.402 76.4687 218.814 76.4685 218.229 77.0572C211.757 78.2346 209.402 76.4687 209.402 71.1745V43.5304H220.579V26.4706H209.402V8.23754H179.404V26.4706H171.17V43.5304Z" fill="currentColor"/>
<path d="M228.233 98.2378H257.643V68.8034C257.643 54.086 265.288 47.6266 277.638 49.9978C278.889 50.1194 280.097 50.522 281.17 51.1752V25.8819C273.522 23.5271 265.284 26.4705 258.816 34.1153C258.816 34.704 258.227 35.2927 257.639 35.8814V26.4787H228.229L228.233 98.2378Z" fill="currentColor"/>
<path d="M317.051 0H287.049V19.9992H317.051V0ZM317.051 26.4707H287.049V98.2504H317.051V26.4707Z" fill="currentColor"/>
<path d="M376.46 64.1142V72.9405C376.46 78.2306 372.932 82.3432 364.106 82.3432H362.344C357.05 81.7545 355.288 79.4039 355.288 75.8759C355.877 72.9365 357.05 71.7591 361.756 69.4043C362.075 69.4439 362.4 69.4116 362.705 69.3097C363.011 69.2079 363.29 69.0391 363.522 68.8157H364.11L367.054 67.6382L370.582 67.0496L372.933 65.8721C374.165 65.4038 375.347 64.8121 376.46 64.106M376.46 48.2235C376.486 49.0479 376.283 49.8633 375.872 50.5785C374.67 51.5019 373.256 52.1092 371.759 52.3446L365.876 53.5219L363.522 54.1105L358.231 54.6993L354.115 55.288L349.405 56.4654C335.289 59.4089 328.822 65.868 327.051 74.1138C324.701 90.5808 336.454 102.347 357.643 99.4071C360.07 99.1677 362.449 98.5727 364.703 97.641C372.348 94.6976 374.699 92.3265 375.876 88.8148C375.871 90.4801 376.303 92.1177 377.129 93.5634C377.956 95.0091 379.148 96.2122 380.585 97.0524C384.114 99.9918 389.408 100.581 403.528 98.8185C405.29 98.8185 407.056 98.2299 408.818 98.2299V79.4243H407.641C404.702 79.4243 404.701 79.4244 404.113 78.2471V48.2482C404.113 32.3658 394.113 24.1281 368.82 24.1281C345.877 24.1281 335.878 31.1884 332.35 44.716C332.35 46.4821 331.761 48.2441 331.761 49.4215H360.582V48.244C360.743 46.3236 361.617 44.5335 363.033 43.2264C364.449 41.9193 366.304 41.1904 368.231 41.1838H371.759C372.986 41.4879 374.092 42.1566 374.931 43.1016C375.77 44.0467 376.303 45.224 376.46 46.4781V48.2235Z" fill="currentColor"/>
</svg>
