<svg width="279" height="100" viewBox="0 0 279 100" fill="none" xmlns="http://www.w3.org/2000/svg">
<path d="M71.5372 52.1198C66.554 47.4716 59.7166 44.5945 52.6567 42.2117L16.0602 48.6366C21.3932 51.7296 27.7477 53.8918 33.9897 55.9957C46.8913 60.2872 59.6493 63.6101 59.6493 74.1311C59.6493 82.5759 52.1112 86.4517 42.1077 86.4517C28.6263 86.4517 15.1438 80.084 7.46018 74.4086L0.0664062 84.3755C7.46018 91.5743 25.2917 99.8809 43.4131 99.8809C62.694 99.8809 79.51 90.1903 79.51 71.7774C79.51 62.9171 76.3209 56.5494 71.5372 52.1198Z" fill="currentColor"/>
<path d="M3.25635 27.2008C3.25635 33.014 4.56101 37.8607 8.04 42.1518C8.81588 43.0739 9.66724 43.9315 10.5766 44.7381L42.6427 39.109C31.8069 35.9222 23.1167 33.065 23.1167 24.5693C23.1167 17.6483 29.9311 13.3568 40.3688 13.3568C53.8501 13.3568 63.5637 19.0323 68.7824 23.0475L76.3209 13.9105C70.377 8.5113 57.1847 0.0665588 38.9186 0.0665588C19.7824 0.0665588 3.25635 9.75722 3.25635 27.2008Z" fill="currentColor"/>
<path d="M115.971 14.5245H129.178V1.54825H96.781V29.6047L115.971 26.2358V14.5245Z" fill="currentColor"/>
<path d="M115.971 59.2556H127.568C128.13 59.2556 128.661 59.263 129.178 59.2735V46.1405H115.971V31.0969L96.781 34.4658V98.4638H115.971V59.2556Z" fill="currentColor"/>
<path d="M155.318 54.5619C154.627 54.1482 153.799 53.7339 153.799 52.9054C153.799 52.3529 154.213 52.0766 154.903 51.8008C164.982 48.4868 172.161 39.928 172.161 28.607C172.161 20.3229 169.261 13.8346 163.877 9.14124C157.943 4.17237 149.112 1.55019 138.35 1.54825H133.965V14.5245H134.057C147.172 14.5245 152.281 21.7047 152.281 30.4015C152.281 38.8229 146.895 46.1405 134.195 46.1405H133.965V59.6136C136.666 59.9949 138.597 60.7074 140.269 61.8786C143.306 64.2265 145.102 67.5389 147.172 72.6479C152.142 83.8296 156.56 94.3226 158.217 98.4638H179.616L166.363 69.6093C163.049 62.4303 160.15 57.7373 155.318 54.5619Z" fill="currentColor"/>
<path d="M278.212 1.54825H262.891L267.312 29.6576L278.212 1.54825Z" fill="currentColor"/>
<path d="M240.633 98.4634L263.973 38.2696L259.555 10.184L236.074 73.8903C235.107 76.3755 234.14 79.1358 233.311 82.035H233.034C232.206 79.1358 231.238 76.0984 230.41 73.8903L204.023 1.54825H184.405L221.568 98.4634H240.633Z" fill="currentColor"/>
</svg>
