<svg width="279" height="116" viewBox="0 0 279 116" fill="none" xmlns="http://www.w3.org/2000/svg">
<path d="M71.5372 60.1198C66.554 55.4716 59.7166 52.5945 52.6567 50.2117L16.0602 56.6366C21.3932 59.7296 27.7477 61.8918 33.9897 63.9957C46.8913 68.2872 59.6493 71.6101 59.6493 82.1311C59.6493 90.5759 52.1112 94.4517 42.1077 94.4517C28.6263 94.4517 15.1438 88.084 7.46018 82.4086L0.0664062 92.3755C7.46018 99.5743 25.2917 107.881 43.4131 107.881C62.694 107.881 79.51 98.1903 79.51 79.7774C79.51 70.9171 76.3209 64.5494 71.5372 60.1198Z" fill="currentColor"/>
<path d="M3.25781 35.2008C3.25781 41.014 4.56247 45.8607 8.04146 50.1518C8.81734 51.0739 9.6687 51.9315 10.5781 52.7381L42.6442 47.109C31.8084 43.9222 23.1182 41.065 23.1182 32.5693C23.1182 25.6483 29.9326 21.3568 40.3703 21.3568C53.8516 21.3568 63.5652 27.0323 68.7839 31.0475L76.3224 21.9105C70.3785 16.5113 57.1862 8.06653 38.9201 8.06653C19.7839 8.06653 3.25781 17.7572 3.25781 35.2008Z" fill="currentColor"/>
<path d="M115.971 22.5245H129.178V9.54828H96.7812V37.6047L115.971 34.2358V22.5245Z" fill="currentColor"/>
<path d="M115.971 67.2556H127.568C128.13 67.2556 128.661 67.263 129.178 67.2735V54.1405H115.971V39.0969L96.7812 42.4658V106.464H115.971V67.2556Z" fill="currentColor"/>
<path d="M155.318 62.5619C154.627 62.1482 153.799 61.7339 153.799 60.9054C153.799 60.3529 154.213 60.0766 154.903 59.8008C164.982 56.4868 172.161 47.928 172.161 36.607C172.161 28.3229 169.261 21.8346 163.877 17.1413C157.943 12.1724 149.112 9.55022 138.35 9.54828H133.965V22.5245H134.057C147.172 22.5245 152.281 29.7047 152.281 38.4015C152.281 46.8229 146.895 54.1405 134.195 54.1405H133.965V67.6136C136.666 67.9949 138.597 68.7074 140.269 69.8786C143.306 72.2265 145.102 75.5389 147.172 80.6479C152.142 91.8296 156.56 102.323 158.217 106.464H179.616L166.363 77.6093C163.049 70.4303 160.15 65.7373 155.318 62.5619Z" fill="currentColor"/>
<path d="M278.212 9.54828H262.891L267.312 37.6576L278.212 9.54828Z" fill="currentColor"/>
<path d="M240.634 106.463L263.974 46.2696L259.556 18.184L236.075 81.8903C235.108 84.3755 234.141 87.1358 233.312 90.035H233.035C232.207 87.1358 231.239 84.0984 230.411 81.8903L204.024 9.54828H184.406L221.569 106.463H240.634Z" fill="currentColor"/>
</svg>
