<svg width="500" height="150" viewBox="0 0 500 150" fill="none" xmlns="http://www.w3.org/2000/svg">
<path d="M-6.10352e-05 29.925L36.3132 59.9294C42.872 65.3147 46.5543 73.4882 46.5543 82.6765V116.324L10.2411 86.3368C3.68229 80.9485 -6.10352e-05 72.7765 -6.10352e-05 63.5882V29.925Z" fill="currentColor"/>
<path d="M100.106 1.34265L66.5367 28.9956C59.9779 34.3809 56.2955 42.5544 56.2955 51.7427V85.3912L89.8647 57.7382C96.4235 52.353 100.106 44.1794 100.106 34.9912V1.34265Z" fill="currentColor"/>
<path d="M111.095 54.5736L66.522 91.5883C59.9631 96.975 56.2823 105.147 56.2823 114.337V147.985L100.856 110.969C107.413 105.582 111.095 97.4103 111.095 88.2221V54.5736Z" fill="currentColor"/>
<path d="M499.181 87.0029C499.181 87.0029 490.407 87.1044 488.719 87.0029V87.147C488.69 100.125 486.826 104 474.459 104H466.228C462.428 104 459.816 102.331 459.816 97.5118V78.6412H462.956C471.201 78.6412 472.228 79.9618 472.331 87.4956V88.2515H479.945V60.5971H472.126V61.6573C472.126 68.9735 470.673 69.7279 463.176 69.7279H459.831V53.3103C459.831 49.4353 462.016 46.2853 466.037 46.2853H474.488C483.996 46.2853 488.441 47.3441 488.441 60.3515H498.169L498.11 38.4456L433.832 38.4897V45.0074H434.771C438.688 45.0074 440.478 46.6765 440.801 51.5971L440.698 97.4103C440.376 101.591 439.115 104.101 434.243 104.101H433.832V110.837L499.254 110.779L499.21 86.9882L499.181 87.0029ZM344.729 95.0588C343.878 92.2868 343.966 90.4559 343.247 88.0471C342.132 83.8235 339.991 80.6735 335.868 78.6412H335.926C335.779 78.5676 335.618 78.5103 335.472 78.4529C334.089 77.8371 332.649 77.3603 331.172 77.0294C341.898 75.7809 349.072 68.45 349.072 58.5074C349.072 41.8868 339.243 38.5324 321.915 38.5324H281.654V44.9485H284.296C288.096 44.9485 289.372 46.5162 289.681 50.5956C289.988 55.8221 289.988 92.6485 289.681 97.875C289.357 102.375 287.744 104.116 283.518 104.116V110.851H315.312V104.146H314.828C311.131 104.146 308.798 102.39 308.798 97.875V80.7456H311.806C316.765 80.7456 319.978 83.2868 321.812 87.9603C323.132 91.8073 325.01 99.8632 325.01 99.8632C327.021 106.454 330.131 110.896 337.951 110.896C345.771 110.896 355.953 110.807 355.953 110.807V103.871H356.012C351.89 103.871 347.238 103.275 344.729 95.0588ZM308.798 51.1912C308.798 48.3029 311.16 45.9647 314.079 45.9647H317.645C326.198 45.9647 327.944 49.8265 327.944 58.1882C327.944 67.0706 325.568 71.8191 315.444 71.8191H308.798V51.1765V51.1912ZM270.478 95.0294C266.297 85.0868 251.316 43.4397 249.453 38.4603H230.218C228.296 43.6868 212.084 89.5132 209.926 94.9132C207.287 101.504 204.762 104.116 198.644 104.116V110.851H228.223V104.118H225.582C219.875 104.118 218.716 99.4294 220.828 92.8382L222.09 89.3265H247.076L248.294 92.6353C250.626 99.1824 249.453 104.118 244.171 104.118H241.046V110.853H279.148V104.118C275.041 104.118 273.559 102.129 270.493 95.0162L270.478 95.0294ZM225.303 80.4118L234.444 55.0676L243.79 80.4118H225.303ZM211.128 38.4603H181.55V45.1956H184.191C189.898 45.1956 191.057 49.8853 188.944 56.475L175.315 94.2603L161.478 56.6926C159.146 50.1456 160.319 45.2103 165.601 45.2103H168.726V38.475H129.685V45.2103C133.793 45.2103 136.215 48.6515 139.279 55.7632C142.772 64.0382 158.266 105.424 160.304 110.881H179.54C181.668 105.09 198.466 59.3059 199.831 55.8809C202.472 49.2897 204.996 45.225 211.113 45.225V38.4897L211.128 38.4603ZM356.497 38.4603L356.541 60.3647H366.254L366.459 58.2618C366.782 52.1926 368.997 46.1691 375.863 46.1691H382.334V97.425C382.012 101.504 380.323 104.116 375.57 104.116H374.529V110.851H408.744V104.118H407.482C402.625 104.118 401.246 101.404 401.041 97.4265L400.938 46.1706H407.394C414.26 46.1706 416.49 52.1941 416.798 58.2618L417.004 60.3662H426.731L426.834 38.4618L356.497 38.4603Z" fill="currentColor"/>
</svg>
